<?xml version="1.0" encoding="UTF-8"?>
<svg width="160px" height="160px" viewBox="0 0 160 160" version="1.1" xmlns="http://www.w3.org/2000/svg" xmlns:xlink="http://www.w3.org/1999/xlink">
    <title>04d</title>
    <defs>
        <polygon id="path-1" points="0.2343 0.977 89.7233 0.977 89.7233 88.0003 0.2343 88.0003"></polygon>
        <polygon id="path-3" points="0.0004 0.9763 120.1484 0.9763 120.1484 88 0.0004 88"></polygon>
    </defs>
    <g id="04d" stroke="none" stroke-width="1" fill="none" fill-rule="evenodd">
        <g id="Group-7" transform="translate(2.000000, 25.000000)">
            <g id="Group-3" transform="translate(67.000000, 0.023000)">
                <mask id="mask-2" fill="white">
                    <use xlink:href="#path-1"></use>
                </mask>
                <g id="Clip-2"></g>
                <path d="M60.8223,30.1973 C60.6613,30.1973 60.4983,30.1983 60.3363,30.2013 C59.5513,13.9543 46.0873,0.9763 29.6493,0.9763 C15.7943,0.9763 4.0513,10.1973 0.2343,22.8243 C2.8843,23.4603 5.3983,24.4403 7.7323,25.7133 C10.3673,16.0793 19.1923,8.9763 29.6493,8.9763 C42.1783,8.9763 52.3723,19.1703 52.3723,31.6993 C52.3723,32.5073 52.3253,33.3473 52.2323,34.1973 C52.0943,35.4563 52.5613,36.7053 53.4913,37.5653 C54.4193,38.4263 55.7003,38.7943 56.9463,38.5623 C58.2393,38.3203 59.5433,38.1973 60.8223,38.1973 C72.3463,38.1973 81.7233,47.5733 81.7233,59.0983 C81.7233,70.6233 72.3463,80.0003 60.8223,80.0003 L53.1453,80.0003 C53.1453,80.0333 53.1483,80.0653 53.1483,80.0983 C53.1483,82.8383 52.7573,85.4873 52.0413,88.0003 L60.8223,88.0003 C76.7593,88.0003 89.7233,75.0343 89.7233,59.0983 C89.7233,43.1623 76.7593,30.1973 60.8223,30.1973" id="Fill-1" fill="#325577" mask="url(#mask-2)"></path>
            </g>
            <g id="Group-6" transform="translate(0.000000, 21.023000)">
                <mask id="mask-4" fill="white">
                    <use xlink:href="#path-3"></use>
                </mask>
                <g id="Clip-5"></g>
                <path d="M28.9014,38.1973 C17.3764,38.1973 8.0004,47.5733 8.0004,59.0983 C8.0004,70.6233 17.3764,80.0003 28.9014,80.0003 L91.2474,80.0003 C102.7714,80.0003 112.1484,70.6233 112.1484,59.0983 C112.1484,47.5733 102.7714,38.1973 91.2474,38.1973 C89.9674,38.1973 88.6634,38.3203 87.3704,38.5623 C86.1244,38.7943 84.8434,38.4263 83.9164,37.5653 C82.9864,36.7053 82.5194,35.4563 82.6574,34.1973 C82.7504,33.3473 82.7974,32.5073 82.7974,31.6993 C82.7974,19.1703 72.6034,8.9763 60.0744,8.9763 C47.5454,8.9763 37.3514,19.1703 37.3514,31.6993 C37.3514,32.5073 37.3984,33.3473 37.4914,34.1973 C37.6284,35.4563 37.1614,36.7053 36.2324,37.5653 C35.3034,38.4263 34.0224,38.7943 32.7774,38.5623 C31.4844,38.3203 30.1804,38.1973 28.9014,38.1973 M91.2474,88.0003 L28.9014,88.0003 C12.9644,88.0003 0.0004,75.0343 0.0004,59.0983 C0.0004,43.0013 13.2354,29.9173 29.3874,30.2013 C30.1724,13.9543 43.6354,0.9763 60.0744,0.9763 C76.5114,0.9763 89.9764,13.9543 90.7604,30.2013 C106.8894,29.9033 120.1484,43.0013 120.1484,59.0983 C120.1484,75.0343 107.1824,88.0003 91.2474,88.0003" id="Fill-4" fill="#6F89A9" mask="url(#mask-4)"></path>
            </g>
        </g>
    </g>
</svg>