<?xml version="1.0" encoding="UTF-8"?>
<svg width="160px" height="160px" viewBox="0 0 160 160" version="1.1" xmlns="http://www.w3.org/2000/svg" xmlns:xlink="http://www.w3.org/1999/xlink">
    <title>01n</title>
    <g id="01n" stroke="none" stroke-width="1" fill="none" fill-rule="evenodd">
        <path d="M84.609,54 C70.488,54 59,65.488 59,79.609 C59,93.73 70.488,105.219 84.609,105.219 C88.768,105.219 92.821,104.211 96.448,102.318 C86.755,96.268 80.609,85.532 80.609,73.791 C80.609,66.675 82.879,59.792 86.984,54.109 C86.197,54.037 85.405,54 84.609,54 M84.609,113.219 C66.077,113.219 51,98.142 51,79.609 C51,61.077 66.077,46 84.609,46 C88.453,46 92.233,46.65 95.846,47.932 C97.178,48.404 98.162,49.544 98.433,50.931 C98.706,52.317 98.226,53.745 97.172,54.686 C91.73,59.544 88.609,66.508 88.609,73.791 C88.609,84.612 95.46,94.312 105.657,97.929 C106.988,98.402 107.972,99.542 108.244,100.928 C108.516,102.314 108.038,103.742 106.983,104.683 C100.818,110.188 92.872,113.219 84.609,113.219" id="Fill-1" fill="#FFF0CA"></path>
    </g>
</svg>