<?xml version="1.0" encoding="UTF-8"?>
<svg width="160px" height="160px" viewBox="0 0 160 160" version="1.1" xmlns="http://www.w3.org/2000/svg" xmlns:xlink="http://www.w3.org/1999/xlink">
    <title>01d</title>
    <g id="01d" stroke="none" stroke-width="1" fill="none" fill-rule="evenodd">
        <path d="M80.0882,119.0776 C82.2972,119.0776 84.0882,120.8686 84.0882,123.0776 L84.0882,136.1756 C84.0882,138.3846 82.2972,140.1756 80.0882,140.1756 C77.8792,140.1756 76.0882,138.3846 76.0882,136.1756 L76.0882,123.0776 C76.0882,120.8686 77.8792,119.0776 80.0882,119.0776 Z M52.518,107.6579 C54.08,109.2199 54.08,111.7519 52.518,113.3149 L43.256,122.5769 C42.475,123.3569 41.451,123.7479 40.428,123.7479 C39.404,123.7479 38.38,123.3569 37.599,122.5769 C36.037,121.0139 36.037,118.4819 37.599,116.9189 L46.861,107.6579 C48.423,106.0959 50.955,106.0959 52.518,107.6579 Z M113.3144,107.6579 L122.5764,116.9189 C124.1394,118.4819 124.1394,121.0139 122.5764,122.5769 C121.7954,123.3569 120.7714,123.7479 119.7484,123.7479 C118.7244,123.7479 117.7004,123.3569 116.9194,122.5769 L107.6574,113.3149 C106.0964,111.7519 106.0964,109.2199 107.6574,107.6579 C109.2204,106.0959 111.7524,106.0959 113.3144,107.6579 Z M80.0882,46.4778 C98.6202,46.4778 113.6972,61.5548 113.6972,80.0878 C113.6972,98.6198 98.6202,113.6968 80.0882,113.6968 C61.5562,113.6968 46.4792,98.6198 46.4792,80.0878 C46.4792,61.5548 61.5562,46.4778 80.0882,46.4778 Z M80.0882,54.4778 C65.9672,54.4778 54.4792,65.9668 54.4792,80.0878 C54.4792,94.2088 65.9672,105.6968 80.0882,105.6968 C94.2092,105.6968 105.6972,94.2088 105.6972,80.0878 C105.6972,65.9668 94.2092,54.4778 80.0882,54.4778 Z M37.098,76.0877 C39.307,76.0877 41.098,77.8787 41.098,80.0877 C41.098,82.2967 39.307,84.0877 37.098,84.0877 L24,84.0877 C21.791,84.0877 20,82.2967 20,80.0877 C20,77.8787 21.791,76.0877 24,76.0877 L37.098,76.0877 Z M136.1761,76.0877 C138.3851,76.0877 140.1761,77.8787 140.1761,80.0877 C140.1761,82.2967 138.3851,84.0877 136.1761,84.0877 L123.0771,84.0877 C120.8681,84.0877 119.0771,82.2967 119.0771,80.0877 C119.0771,77.8787 120.8681,76.0877 123.0771,76.0877 L136.1761,76.0877 Z M122.5766,37.5993 C124.1386,39.1613 124.1386,41.6933 122.5766,43.2563 L113.3146,52.5183 C112.5336,53.2983 111.5096,53.6893 110.4866,53.6893 C109.4626,53.6893 108.4386,53.2983 107.6576,52.5183 C106.0956,50.9553 106.0956,48.4233 107.6576,46.8603 L116.9196,37.5993 C118.4816,36.0373 121.0136,36.0373 122.5766,37.5993 Z M43.2558,37.5993 L52.5178,46.8603 C54.0808,48.4233 54.0808,50.9553 52.5178,52.5183 C51.7368,53.2983 50.7128,53.6893 49.6898,53.6893 C48.6658,53.6893 47.6418,53.2983 46.8608,52.5183 L37.5988,43.2563 C36.0378,41.6933 36.0378,39.1613 37.5988,37.5993 C39.1618,36.0373 41.6938,36.0373 43.2558,37.5993 Z M80.0882,20 C82.2972,20 84.0882,21.791 84.0882,24 L84.0882,37.098 C84.0882,39.307 82.2972,41.098 80.0882,41.098 C77.8792,41.098 76.0882,39.307 76.0882,37.098 L76.0882,24 C76.0882,21.791 77.8792,20 80.0882,20 Z" id="Combined-Shape" fill="#FFBE06"></path>
    </g>
</svg>