<?xml version="1.0" encoding="UTF-8"?>
<svg width="160px" height="160px" viewBox="0 0 160 160" version="1.1" xmlns="http://www.w3.org/2000/svg" xmlns:xlink="http://www.w3.org/1999/xlink">
    <title>02n</title>
    <g id="02n" stroke="none" stroke-width="1" fill="none" fill-rule="evenodd">
        <g id="Group" transform="translate(20.000000, 33.000000)">
            <path d="M9.7721,42.915 C11.8451,41.08 14.1801,39.535 16.7151,38.348 C12.7061,35.246 10.1081,30.401 10.1081,24.95 C10.1081,15.752 17.4731,8.242 26.6141,8.006 C24.3131,11.846 23.0581,16.275 23.0581,20.833 C23.0581,26.291 24.8491,31.456 27.9541,35.657 C28.4281,35.641 28.9071,35.635 29.3871,35.643 C29.5611,32.024 30.3691,28.568 31.6941,25.381 C31.2861,23.922 31.0581,22.397 31.0581,20.833 C31.0581,16.014 33.1241,11.405 36.7261,8.188 C37.7801,7.247 38.2591,5.82 37.9871,4.434 C37.7151,3.047 36.7311,1.907 35.4001,1.435 C32.7171,0.483 29.9111,-1.77635684e-14 27.0581,-1.77635684e-14 C13.3011,-1.77635684e-14 2.1081,11.193 2.1081,24.95 C2.1081,32 5.0531,38.373 9.7721,42.915" id="Fill-1" fill="#FFF0CA"></path>
            <path d="M28.901,43.6387 C17.376,43.6387 8,53.0147 8,64.5397 C8,76.0647 17.376,85.4417 28.901,85.4417 L91.246,85.4417 C102.771,85.4417 112.147,76.0647 112.147,64.5397 C112.147,53.0147 102.771,43.6387 91.246,43.6387 C89.964,43.6387 88.661,43.7617 87.371,44.0037 C86.128,44.2387 84.844,43.8677 83.916,43.0077 C82.986,42.1477 82.519,40.8977 82.656,39.6387 C82.749,38.7887 82.796,37.9487 82.796,37.1407 C82.796,24.6117 72.602,14.4177 60.073,14.4177 C47.544,14.4177 37.35,24.6117 37.35,37.1407 C37.35,37.9497 37.397,38.7897 37.49,39.6367 C37.629,40.8957 37.162,42.1457 36.232,43.0067 C35.302,43.8677 34.021,44.2397 32.776,44.0037 C31.486,43.7617 30.182,43.6387 28.901,43.6387 M91.246,93.4417 L28.901,93.4417 C12.964,93.4417 4.19220214e-13,80.4757 4.19220214e-13,64.5397 C4.19220214e-13,48.4427 13.267,35.3877 29.386,35.6427 C30.171,19.3957 43.635,6.4177 60.073,6.4177 C76.511,6.4177 89.975,19.3957 90.759,35.6427 C106.924,35.3887 120.147,48.4427 120.147,64.5397 C120.147,80.4757 107.182,93.4417 91.246,93.4417" id="Fill-4" fill="#6F89A9"></path>
        </g>
    </g>
</svg>