<?xml version="1.0" encoding="UTF-8"?>
<svg width="160px" height="160px" viewBox="0 0 160 160" version="1.1" xmlns="http://www.w3.org/2000/svg" xmlns:xlink="http://www.w3.org/1999/xlink">
    <title>02d</title>
    <g id="02d" stroke="none" stroke-width="1" fill="none" fill-rule="evenodd">
        <g id="Group" transform="translate(12.000000, 24.000000)">
            <path d="M10.15,47.9996 L4,47.9996 C1.791,47.9996 -1.82076576e-13,46.2086 -1.82076576e-13,43.9996 C-1.82076576e-13,41.7906 1.791,39.9996 4,39.9996 L10.15,39.9996 C12.359,39.9996 14.15,41.7906 14.15,43.9996 C14.15,46.2086 12.359,47.9996 10.15,47.9996" id="Fill-1" fill="#FFBE06"></path>
            <path d="M43.9996,14.15 C41.7906,14.15 39.9996,12.359 39.9996,10.15 L39.9996,4 C39.9996,1.791 41.7906,-1.42108547e-14 43.9996,-1.42108547e-14 C46.2086,-1.42108547e-14 47.9996,1.791 47.9996,4 L47.9996,10.15 C47.9996,12.359 46.2086,14.15 43.9996,14.15" id="Fill-3" fill="#FFBE06"></path>
            <path d="M20.064,24.0645 C19.041,24.0645 18.017,23.6735 17.236,22.8935 L12.886,18.5435 C11.325,16.9815 11.325,14.4495 12.886,12.8865 C14.449,11.3255 16.981,11.3255 18.543,12.8865 L22.893,17.2355 C24.455,18.7985 24.455,21.3305 22.893,22.8935 C22.112,23.6735 21.088,24.0645 20.064,24.0645" id="Fill-5" fill="#FFBE06"></path>
            <path d="M67.9351,24.0645 C66.9111,24.0645 65.8871,23.6735 65.1071,22.8935 C63.5441,21.3315 63.5441,18.7985 65.1061,17.2365 L69.4551,12.8875 C71.0171,11.3245 73.5501,11.3255 75.1121,12.8865 C76.6741,14.4485 76.6741,16.9815 75.1121,18.5435 L70.7631,22.8925 C69.9821,23.6735 68.9581,24.0645 67.9351,24.0645" id="Fill-7" fill="#FFBE06"></path>
            <path d="M26.3228,61.8057 C28.3688,59.9767 30.6778,58.4387 33.1818,57.2477 C29.3408,54.1077 26.8838,49.3367 26.8838,43.9997 C26.8838,34.5617 34.5608,26.8827 43.9998,26.8827 C49.0758,26.8827 53.6348,29.1117 56.7708,32.6337 C58.8068,30.8897 61.0738,29.4087 63.5178,28.2397 C58.9108,22.5427 51.8808,18.8827 43.9998,18.8827 C30.1498,18.8827 18.8838,30.1497 18.8838,43.9997 C18.8838,50.9577 21.7348,57.2537 26.3228,61.8057" id="Fill-9" fill="#FFBE06"></path>
            <path d="M45.5494,62.4698 C34.0244,62.4698 24.6484,71.8458 24.6484,83.3708 C24.6484,94.8958 34.0244,104.2728 45.5494,104.2728 L107.8954,104.2728 C119.4194,104.2728 128.7964,94.8958 128.7964,83.3708 C128.7964,71.8458 119.4194,62.4698 107.8954,62.4698 C106.6154,62.4698 105.3114,62.5928 104.0184,62.8348 C102.7754,63.0678 101.4914,62.6988 100.5644,61.8378 C99.6344,60.9778 99.1674,59.7288 99.3054,58.4698 C99.3984,57.6198 99.4454,56.7798 99.4454,55.9718 C99.4454,43.4428 89.2514,33.2488 76.7224,33.2488 C64.1934,33.2488 53.9994,43.4428 53.9994,55.9718 C53.9994,56.7808 54.0464,57.6208 54.1394,58.4678 C54.2774,59.7268 53.8104,60.9768 52.8814,61.8378 C51.9524,62.6988 50.6694,63.0678 49.4264,62.8348 C48.1334,62.5928 46.8284,62.4698 45.5494,62.4698 M107.8954,112.2728 L45.5494,112.2728 C29.6124,112.2728 16.6484,99.3068 16.6484,83.3708 C16.6484,67.2738 29.8884,54.1828 46.0354,54.4738 C46.8204,38.2268 60.2834,25.2488 76.7224,25.2488 C93.1594,25.2488 106.6244,38.2268 107.4084,54.4738 C123.5774,54.1688 136.7964,67.2738 136.7964,83.3708 C136.7964,99.3068 123.8304,112.2728 107.8954,112.2728" id="Fill-11" fill="#6F89A9"></path>
        </g>
    </g>
</svg>