<?xml version="1.0" encoding="UTF-8"?>
<svg width="160px" height="160px" viewBox="0 0 160 160" version="1.1" xmlns="http://www.w3.org/2000/svg" xmlns:xlink="http://www.w3.org/1999/xlink">
    <title>icon-search</title>
    <g id="icon-search" stroke="none" stroke-width="1" fill="none" fill-rule="evenodd">
        <path d="M49,74.609 C49,60.488 60.488,49 74.609,49 C88.73,49 100.219,60.488 100.219,74.609 C100.219,88.73 88.73,100.218 74.609,100.218 C60.488,100.218 49,88.73 49,74.609 M117.098,111.441 L101.019,95.36 C105.521,89.641 108.219,82.436 108.219,74.609 C108.219,56.077 93.142,41 74.609,41 C56.077,41 41,56.077 41,74.609 C41,93.141 56.077,108.218 74.609,108.218 C82.437,108.218 89.642,105.521 95.36,101.018 L111.44,117.098 C112.222,117.879 113.245,118.269 114.27,118.269 C115.293,118.269 116.316,117.879 117.098,117.098 C118.66,115.535 118.66,113.003 117.098,111.441" id="Fill-1" fill="#6F89A9"></path>
    </g>
</svg>