<?xml version="1.0" encoding="UTF-8"?>
<svg width="160px" height="160px" viewBox="0 0 160 160" version="1.1" xmlns="http://www.w3.org/2000/svg" xmlns:xlink="http://www.w3.org/1999/xlink">
    <title>50d</title>
    <g id="50d" stroke="none" stroke-width="1" fill="none" fill-rule="evenodd">
        <g id="Group-13" transform="translate(20.000000, 51.000000)" fill="#6F89A9">
            <path d="M106.5636,24 L4.0006,24 C1.7916,24 0.0006,22.209 0.0006,20 C0.0006,17.791 1.7916,16 4.0006,16 L106.5636,16 C108.7726,16 110.5636,17.791 110.5636,20 C110.5636,22.209 108.7726,24 106.5636,24" id="Fill-1"></path>
            <path d="M30.5333,8 L10.2363,8 C8.0273,8 6.2363,6.209 6.2363,4 C6.2363,1.791 8.0273,0 10.2363,0 L30.5333,0 C32.7423,0 34.5333,1.791 34.5333,4 C34.5333,6.209 32.7423,8 30.5333,8" id="Fill-3"></path>
            <path d="M115.9649,8 L49.7709,8 C47.5619,8 45.7709,6.209 45.7709,4 C45.7709,1.791 47.5619,0 49.7709,0 L115.9649,0 C118.1739,0 119.9649,1.791 119.9649,4 C119.9649,6.209 118.1739,8 115.9649,8" id="Fill-5"></path>
            <path d="M115.9649,41.2686 L13.4019,41.2686 C11.1929,41.2686 9.4019,39.4776 9.4019,37.2686 C9.4019,35.0596 11.1929,33.2686 13.4019,33.2686 L115.9649,33.2686 C118.1739,33.2686 119.9649,35.0596 119.9649,37.2686 C119.9649,39.4776 118.1739,41.2686 115.9649,41.2686" id="Fill-7"></path>
            <path d="M109.7481,57.2686 L89.4511,57.2686 C87.2421,57.2686 85.4511,55.4776 85.4511,53.2686 C85.4511,51.0596 87.2421,49.2686 89.4511,49.2686 L109.7481,49.2686 C111.9571,49.2686 113.7481,51.0596 113.7481,53.2686 C113.7481,55.4776 111.9571,57.2686 109.7481,57.2686" id="Fill-9"></path>
            <path d="M70.2139,57.2686 L4.0199,57.2686 C1.8109,57.2686 0.0199,55.4776 0.0199,53.2686 C0.0199,51.0596 1.8109,49.2686 4.0199,49.2686 L70.2139,49.2686 C72.4229,49.2686 74.2139,51.0596 74.2139,53.2686 C74.2139,55.4776 72.4229,57.2686 70.2139,57.2686" id="Fill-11"></path>
        </g>
    </g>
</svg>