<?xml version="1.0" encoding="UTF-8"?>
<svg width="1024px" height="1024px" viewBox="0 0 1024 1024" version="1.1" xmlns="http://www.w3.org/2000/svg" xmlns:xlink="http://www.w3.org/1999/xlink">
    <title>Orbit-iOS-Icon</title>
    <g id="Orbit-iOS-Icon" stroke="none" stroke-width="1" fill="none" fill-rule="evenodd">
        <g id="Group-14">
            <g id="Group-3" fill="#2892FC">
                <path d="M798.9805,0 L225.0195,0 C100.7445,0 0.0005,100.745 0.0005,225.02 L0.0005,798.98 C0.0005,923.255 100.7445,1024 225.0195,1024 L798.9805,1024 C923.2545,1024 1024.0005,923.255 1024.0005,798.98 L1024.0005,225.02 C1024.0005,100.745 923.2545,0 798.9805,0" id="Fill-1"></path>
            </g>
            <path d="M702.6924,522.4697 C702.6034,522.4697 702.5164,522.4627 702.4264,522.4627 C696.9564,632.8567 605.4344,720.9867 493.7054,720.9867 C378.4724,720.9867 284.7184,627.2357 284.7184,511.9997 C284.7184,396.7637 378.4724,303.0147 493.7054,303.0147 C508.1984,303.0147 522.3494,304.5037 536.0194,307.3247 C548.8144,257.6337 583.2534,216.6437 628.6774,194.9687 C587.2254,177.2987 541.6134,167.4997 493.7064,167.4997 C303.4444,167.4997 149.2064,321.7377 149.2064,511.9997 C149.2064,702.2617 303.4444,856.4997 493.7064,856.4997 C683.9684,856.4997 838.2064,702.2617 838.2064,511.9997 C838.2064,494.6917 836.8954,477.6917 834.4314,461.0677 C802.8614,498.5987 755.5744,522.4697 702.6924,522.4697" id="Fill-4" fill="#FFBE06"></path>
            <path d="M536.0195,307.3252 C532.4765,321.0822 530.5915,335.5052 530.5915,350.3692 C530.5915,445.3282 607.5005,522.3182 702.4265,522.4632 C702.5985,518.9962 702.6925,515.5092 702.6925,511.9992 C702.6925,411.2572 631.0395,326.9412 536.0195,307.3252" id="Fill-6" fill="#FFFFFF"></path>
            <path d="M834.4316,461.0679 C859.6056,431.1409 874.7936,392.5359 874.7936,350.3689 C874.7936,255.3199 797.7416,178.2679 702.6926,178.2679 C676.1936,178.2679 651.0996,184.2709 628.6776,194.9689 C736.8746,241.0919 816.6306,340.9719 834.4316,461.0679" id="Fill-8" fill="#FFFFFF"></path>
            <path d="M536.0195,307.3252 C631.0395,326.9412 702.6925,411.2572 702.6925,511.9992 C702.6925,515.5092 702.5985,518.9962 702.4265,522.4632 C702.5165,522.4632 702.6035,522.4702 702.6925,522.4702 C755.5745,522.4702 802.8615,498.5982 834.4315,461.0682 C816.6305,340.9722 736.8745,241.0922 628.6775,194.9692 C583.2525,216.6432 548.8145,257.6342 536.0195,307.3252" id="Fill-10" fill="#FFBE06"></path>
            <path d="M536.0195,307.3252 C631.0395,326.9412 702.6925,411.2572 702.6925,511.9992 C702.6925,515.5092 702.5985,518.9962 702.4265,522.4632 C702.5165,522.4632 702.6035,522.4702 702.6925,522.4702 C755.5745,522.4702 802.8615,498.5982 834.4315,461.0682 C816.6305,340.9722 736.8745,241.0922 628.6775,194.9692 C583.2525,216.6432 548.8145,257.6342 536.0195,307.3252" id="Fill-12" fill="#F9E5B9"></path>
        </g>
    </g>
</svg>