<?xml version="1.0" encoding="UTF-8"?>
<svg width="80px" height="80px" viewBox="0 0 80 80" version="1.1" xmlns="http://www.w3.org/2000/svg" xmlns:xlink="http://www.w3.org/1999/xlink">
    <title>orbitIcon</title>
    <g id="orbitIcon" stroke="none" stroke-width="1" fill="none" fill-rule="evenodd">
        <g id="Group" transform="translate(1.500000, 3.000000)">
            <path d="M58.7030606,37.6483333 C58.6936212,37.6483333 58.6843939,37.6475909 58.6748485,37.6475909 C58.094697,49.3560455 48.3878182,58.7031667 36.5377727,58.7031667 C24.3160909,58.7031667 14.3724848,48.7598788 14.3724848,36.5378788 C14.3724848,24.3158788 24.3160909,14.372803 36.5377727,14.372803 C38.0749091,14.372803 39.5757727,14.5307273 41.0256212,14.8299242 C42.3826667,9.55966667 46.0352879,5.21224242 50.8529848,2.91337879 C46.4565606,1.03928788 41.6189242,0 36.5378788,0 C16.3585758,0 0,16.3585758 0,36.5378788 C0,56.7171818 16.3585758,73.0757576 36.5378788,73.0757576 C56.7171818,73.0757576 73.0757576,56.7171818 73.0757576,36.5378788 C73.0757576,34.7021818 72.9367121,32.8991515 72.6753788,31.136 C69.3270455,35.1165606 64.3117576,37.6483333 58.7030606,37.6483333" id="Fill-4" fill="#FFBE06"></path>
            <path d="M41.0256318,14.8299773 C51.1035106,16.9104621 58.7030712,25.8530682 58.7030712,36.5378258 C58.7030712,36.9100985 58.6931015,37.2799318 58.6748591,37.6476439 C58.6844045,37.6476439 58.6936318,37.6483864 58.7030712,37.6483864 C64.3117682,37.6483864 69.3270561,35.1165076 72.6753894,31.136053 C70.7874045,18.3985985 62.3284348,7.80526515 50.8529955,2.91343182 C46.0351924,5.21218939 42.3826773,9.5597197 41.0256318,14.8299773" id="Fill-10" fill="#FFBE06"></path>
            <path d="M72.42743,31.4247049 C69.0820549,35.2385077 64.1749707,37.6483864 58.7030712,37.6483864 C58.6936318,37.6483864 58.6844045,37.6476439 58.6748591,37.6476439 L58.6748591,37.6476439 L58.3399784,37.6441213 C48.42669,37.450572 40.4499348,29.3547545 40.4499348,19.39525 C40.4499348,17.8187652 40.6498591,16.289053 41.0256318,14.8299773 L41.0256318,14.8299773 L41.129008,14.4460118 C42.561542,9.34886383 46.1526998,5.15612214 50.8529955,2.91343182 L50.8529955,2.91343182 L51.2755836,2.71836737 C53.5447285,1.70606294 56.0579053,1.14208182 58.7030818,1.14208182 C68.7840364,1.14208182 76.9562182,9.31426364 76.9562182,19.3952182 C76.9562182,23.8674758 75.3453697,27.9619455 72.6754,31.1360212 L72.6754,31.1360212 Z" id="Combined-Shape" fill="#FFFFFF"></path>
        </g>
    </g>
</svg>