<?xml version="1.0" encoding="UTF-8"?>
<svg width="160px" height="160px" viewBox="0 0 160 160" version="1.1" xmlns="http://www.w3.org/2000/svg" xmlns:xlink="http://www.w3.org/1999/xlink">
    <title>09d</title>
    <g id="09d" stroke="none" stroke-width="1" fill="none" fill-rule="evenodd">
        <g id="Group" transform="translate(2.000000, 2.000000)">
            <path d="M28.9782,132.1674 C28.5212,132.1674 28.0552,132.0884 27.6012,131.9214 C25.5272,131.1614 24.4622,128.8634 25.2232,126.7894 L29.2782,115.7294 C30.0382,113.6554 32.3352,112.5884 34.4112,113.3514 C36.4852,114.1114 37.5492,116.4094 36.7892,118.4834 L32.7342,129.5434 C32.1402,131.1634 30.6082,132.1674 28.9782,132.1674" id="Fill-4" fill="#6F89A9"></path>
            <path d="M82.3112,132.1674 C81.8542,132.1674 81.3892,132.0884 80.9352,131.9214 C78.8612,131.1614 77.7952,128.8634 78.5562,126.7894 L82.6112,115.7294 C83.3712,113.6554 85.6672,112.5864 87.7442,113.3514 C89.8182,114.1114 90.8822,116.4094 90.1222,118.4834 L86.0672,129.5434 C85.4732,131.1634 83.9422,132.1674 82.3112,132.1674" id="Fill-6" fill="#6F89A9"></path>
            <path d="M55.5075,132.1674 C55.0505,132.1674 54.5855,132.0884 54.1305,131.9214 C52.0565,131.1614 50.9915,128.8634 51.7525,126.7894 L55.8075,115.7294 C56.5675,113.6554 58.8625,112.5864 60.9395,113.3514 C63.0135,114.1114 64.0785,116.4094 63.3185,118.4834 L59.2635,129.5434 C58.6695,131.1634 57.1375,132.1674 55.5075,132.1674" id="Fill-8" fill="#6F89A9"></path>
            <path d="M20.0553,156.5053 C19.5983,156.5053 19.1333,156.4263 18.6783,156.2593 C16.6043,155.4993 15.5393,153.2013 16.3003,151.1273 L20.3553,140.0683 C21.1153,137.9933 23.4103,136.9263 25.4873,137.6893 C27.5613,138.4493 28.6263,140.7473 27.8663,142.8213 L23.8113,153.8813 C23.2173,155.5013 21.6853,156.5053 20.0553,156.5053" id="Fill-10" fill="#6F89A9"></path>
            <path d="M73.3883,156.5053 C72.9313,156.5053 72.4653,156.4263 72.0113,156.2593 C69.9373,155.4993 68.8723,153.2013 69.6333,151.1273 L73.6883,140.0683 C74.4483,137.9933 76.7463,136.9283 78.8213,137.6893 C80.8953,138.4493 81.9593,140.7473 81.1993,142.8213 L77.1443,153.8813 C76.5503,155.5013 75.0183,156.5053 73.3883,156.5053" id="Fill-12" fill="#6F89A9"></path>
            <path d="M46.5837,156.5053 C46.1267,156.5053 45.6617,156.4263 45.2077,156.2593 C43.1337,155.4993 42.0677,153.2013 42.8287,151.1273 L46.8847,140.0683 C47.6447,137.9933 49.9427,136.9283 52.0167,137.6893 C54.0907,138.4493 55.1557,140.7473 54.3957,142.8213 L50.3397,153.8813 C49.7457,155.5013 48.2147,156.5053 46.5837,156.5053" id="Fill-14" fill="#6F89A9"></path>
            <path d="M28.901,58.2206 C17.376,58.2206 8,67.5966 8,79.1216 C8,90.6466 17.376,100.0236 28.901,100.0236 L91.247,100.0236 C102.771,100.0236 112.148,90.6466 112.148,79.1216 C112.148,67.5966 102.771,58.2206 91.247,58.2206 C89.967,58.2206 88.663,58.3436 87.37,58.5856 C86.124,58.8176 84.843,58.4496 83.916,57.5886 C82.986,56.7286 82.519,55.4796 82.657,54.2206 C82.75,53.3706 82.797,52.5306 82.797,51.7226 C82.797,39.1936 72.603,28.9996 60.074,28.9996 C47.545,28.9996 37.351,39.1936 37.351,51.7226 C37.351,52.5306 37.398,53.3706 37.491,54.2206 C37.628,55.4796 37.161,56.7286 36.232,57.5886 C35.303,58.4496 34.022,58.8186 32.777,58.5856 C31.484,58.3436 30.18,58.2206 28.901,58.2206 M91.247,108.0236 L28.901,108.0236 C12.964,108.0236 -3.90798505e-13,95.0576 -3.90798505e-13,79.1216 C-3.90798505e-13,63.0246 13.235,49.9566 29.387,50.2246 C30.172,33.9776 43.635,20.9996 60.074,20.9996 C76.511,20.9996 89.976,33.9776 90.76,50.2246 C106.889,49.9416 120.148,63.0246 120.148,79.1216 C120.148,95.0576 107.182,108.0236 91.247,108.0236" id="Fill-16" fill="#6F89A9"></path>
            <path d="M127.3356,29.225 C126.5516,12.978 113.0866,-4.26325641e-14 96.6486,-4.26325641e-14 C82.7936,-4.26325641e-14 71.0516,9.221 67.2336,21.848 C69.8836,22.483 72.3976,23.463 74.7316,24.737 C77.3666,15.103 86.1916,8 96.6486,8 C109.1786,8 119.3716,18.193 119.3716,30.723 C119.3716,31.531 119.3246,32.371 119.2316,33.221 C119.0946,34.479 119.5616,35.729 120.4906,36.589 C121.4186,37.449 122.6996,37.819 123.9456,37.586 C125.2386,37.344 126.5426,37.221 127.8216,37.221 C139.3466,37.221 148.7236,46.597 148.7236,58.122 C148.7236,69.647 139.3466,79.023 127.8216,79.023 L120.1456,79.023 C120.1456,79.057 120.1486,79.089 120.1486,79.122 C120.1486,81.862 119.7566,84.51 119.0406,87.023 L127.8216,87.023 C143.7586,87.023 156.7236,74.058 156.7236,58.122 C156.7236,42.024 143.4616,28.933 127.3356,29.225" id="Fill-1" fill="#325577"></path>
        </g>
    </g>
</svg>