<?xml version="1.0" encoding="UTF-8"?>
<svg width="160px" height="160px" viewBox="0 0 160 160" version="1.1" xmlns="http://www.w3.org/2000/svg" xmlns:xlink="http://www.w3.org/1999/xlink">
    <title>03d</title>
    <g id="03d" stroke="none" stroke-width="1" fill="none" fill-rule="evenodd">
        <path d="M48.901,73.221 C37.376,73.221 28,82.597 28,94.122 C28,105.647 37.376,115.024 48.901,115.024 L111.247,115.024 C122.771,115.024 132.148,105.647 132.148,94.122 C132.148,82.597 122.771,73.221 111.247,73.221 C109.967,73.221 108.663,73.344 107.37,73.586 C106.127,73.819 104.843,73.45 103.916,72.589 C102.986,71.729 102.519,70.48 102.657,69.221 C102.75,68.371 102.797,67.531 102.797,66.723 C102.797,54.194 92.603,44 80.074,44 C67.545,44 57.351,54.194 57.351,66.723 C57.351,67.532 57.398,68.372 57.491,69.219 C57.629,70.478 57.162,71.728 56.233,72.589 C55.304,73.45 54.021,73.819 52.778,73.586 C51.485,73.344 50.18,73.221 48.901,73.221 M111.247,123.024 L48.901,123.024 C32.964,123.024 20,110.058 20,94.122 C20,78.025 33.24,64.934 49.387,65.225 C50.172,48.978 63.635,36 80.074,36 C96.511,36 109.976,48.978 110.76,65.225 C126.929,64.92 140.148,78.025 140.148,94.122 C140.148,110.058 127.182,123.024 111.247,123.024" id="Fill-1" fill="#6F89A9"></path>
    </g>
</svg>