<?xml version="1.0" encoding="UTF-8"?>
<svg width="160px" height="160px" viewBox="0 0 160 160" version="1.1" xmlns="http://www.w3.org/2000/svg" xmlns:xlink="http://www.w3.org/1999/xlink">
    <title>10d</title>
    <g id="10d" stroke="none" stroke-width="1" fill="none" fill-rule="evenodd">
        <g id="Group-25" transform="translate(12.000000, 0.000000)">
            <path d="M10.1505,47.9996 L4.0005,47.9996 C1.7915,47.9996 0.0005,46.2086 0.0005,43.9996 C0.0005,41.7906 1.7915,39.9996 4.0005,39.9996 L10.1505,39.9996 C12.3595,39.9996 14.1505,41.7906 14.1505,43.9996 C14.1505,46.2086 12.3595,47.9996 10.1505,47.9996" id="Fill-1" fill="#FFBE06"></path>
            <path d="M44.0001,14.15 C41.7911,14.15 40.0001,12.359 40.0001,10.15 L40.0001,4 C40.0001,1.791 41.7911,0 44.0001,0 C46.2091,0 48.0001,1.791 48.0001,4 L48.0001,10.15 C48.0001,12.359 46.2091,14.15 44.0001,14.15" id="Fill-3" fill="#FFBE06"></path>
            <path d="M20.0645,24.0646 C19.0405,24.0646 18.0165,23.6736 17.2355,22.8926 L12.8865,18.5436 C11.3255,16.9816 11.3255,14.4486 12.8875,12.8866 C14.4495,11.3256 16.9825,11.3256 18.5435,12.8876 L22.8925,17.2366 C24.4555,18.7986 24.4555,21.3316 22.8925,22.8936 C22.1115,23.6736 21.0875,24.0646 20.0645,24.0646" id="Fill-5" fill="#FFBE06"></path>
            <path d="M67.9346,24.0646 C66.9116,24.0646 65.8876,23.6736 65.1066,22.8936 C63.5436,21.3306 63.5436,18.7986 65.1066,17.2356 L69.4556,12.8866 C71.0176,11.3256 73.5496,11.3256 75.1126,12.8866 C76.6746,14.4496 76.6746,16.9816 75.1126,18.5436 L70.7636,22.8936 C69.9826,23.6736 68.9586,24.0646 67.9346,24.0646" id="Fill-7" fill="#FFBE06"></path>
            <path d="M26.3204,61.8209 C28.3704,59.9889 30.6824,58.4479 33.1884,57.2559 C29.3444,54.1139 26.8834,49.3399 26.8834,43.9999 C26.8834,34.5619 34.5614,26.8829 44.0004,26.8829 C49.0764,26.8829 53.6294,29.1169 56.7664,32.6379 C58.8074,30.8889 61.0804,29.4039 63.5324,28.2339 C58.9244,22.5359 51.8824,18.8829 44.0004,18.8829 C30.1504,18.8829 18.8834,30.1509 18.8834,43.9999 C18.8834,50.9609 21.7314,57.2669 26.3204,61.8209" id="Fill-9" fill="#FFBE06"></path>
            <path d="M45.627,136.4166 C45.17,136.4166 44.704,136.3376 44.25,136.1706 C42.176,135.4106 41.111,133.1126 41.872,131.0386 L45.927,119.9786 C46.687,117.9046 48.985,116.8386 51.06,117.6006 C53.134,118.3606 54.198,120.6586 53.438,122.7326 L49.383,133.7926 C48.789,135.4126 47.257,136.4166 45.627,136.4166" id="Fill-11" fill="#6F89A9"></path>
            <path d="M98.96,136.4166 C98.503,136.4166 98.038,136.3376 97.584,136.1706 C95.51,135.4106 94.444,133.1126 95.205,131.0386 L99.26,119.9786 C100.021,117.9046 102.314,116.8366 104.393,117.6006 C106.467,118.3606 107.531,120.6586 106.771,122.7326 L102.716,133.7926 C102.122,135.4126 100.591,136.4166 98.96,136.4166" id="Fill-13" fill="#6F89A9"></path>
            <path d="M72.1563,136.4166 C71.6993,136.4166 71.2343,136.3376 70.7793,136.1706 C68.7053,135.4106 67.6403,133.1126 68.4013,131.0386 L72.4563,119.9786 C73.2163,117.9046 75.5103,116.8366 77.5883,117.6006 C79.6623,118.3606 80.7273,120.6586 79.9673,122.7326 L75.9123,133.7926 C75.3183,135.4126 73.7863,136.4166 72.1563,136.4166" id="Fill-15" fill="#6F89A9"></path>
            <path d="M36.7042,160.755 C36.2472,160.755 35.7822,160.676 35.3272,160.509 C33.2532,159.749 32.1882,157.451 32.9492,155.377 L37.0042,144.317 C37.7642,142.243 40.0582,141.174 42.1362,141.939 C44.2102,142.699 45.2752,144.997 44.5152,147.071 L40.4602,158.131 C39.8662,159.751 38.3342,160.755 36.7042,160.755" id="Fill-17" fill="#6F89A9"></path>
            <path d="M90.0372,160.755 C89.5802,160.755 89.1142,160.676 88.6602,160.509 C86.5862,159.749 85.5212,157.451 86.2822,155.377 L90.3372,144.317 C91.0982,142.243 93.3932,141.176 95.4702,141.939 C97.5442,142.699 98.6082,144.997 97.8482,147.071 L93.7932,158.131 C93.1992,159.751 91.6672,160.755 90.0372,160.755" id="Fill-19" fill="#6F89A9"></path>
            <path d="M63.2325,160.755 C62.7755,160.755 62.3105,160.676 61.8565,160.509 C59.7825,159.749 58.7165,157.451 59.4775,155.377 L63.5335,144.317 C64.2935,142.243 66.5895,141.176 68.6655,141.939 C70.7395,142.699 71.8045,144.997 71.0445,147.071 L66.9885,158.131 C66.3945,159.751 64.8635,160.755 63.2325,160.755" id="Fill-21" fill="#6F89A9"></path>
            <path d="M45.5499,62.4698 C34.0249,62.4698 24.6489,71.8458 24.6489,83.3708 C24.6489,94.8958 34.0249,104.2728 45.5499,104.2728 L107.8959,104.2728 C119.4199,104.2728 128.7969,94.8958 128.7969,83.3708 C128.7969,71.8458 119.4199,62.4698 107.8959,62.4698 C106.6159,62.4698 105.3119,62.5928 104.0189,62.8348 C102.7739,63.0688 101.4919,62.6988 100.5649,61.8378 C99.6349,60.9778 99.1679,59.7288 99.3059,58.4698 C99.3989,57.6208 99.4459,56.7808 99.4459,55.9718 C99.4459,43.4428 89.2519,33.2498 76.7229,33.2498 C64.1939,33.2498 53.9999,43.4428 53.9999,55.9718 C53.9999,56.7808 54.0469,57.6208 54.1399,58.4698 C54.2769,59.7288 53.8099,60.9778 52.8809,61.8378 C51.9519,62.6988 50.6709,63.0688 49.4259,62.8348 C48.1329,62.5928 46.8289,62.4698 45.5499,62.4698 M107.8959,112.2728 L45.5499,112.2728 C29.6129,112.2728 16.6489,99.3078 16.6489,83.3708 C16.6489,67.2738 29.9089,54.1988 46.0359,54.4738 C46.8209,38.2268 60.2839,25.2498 76.7229,25.2498 C93.1599,25.2498 106.6249,38.2268 107.4089,54.4738 C123.5639,54.1838 136.7969,67.2738 136.7969,83.3708 C136.7969,99.3078 123.8309,112.2728 107.8959,112.2728" id="Fill-23" fill="#6F89A9"></path>
        </g>
    </g>
</svg>