<?xml version="1.0" encoding="UTF-8"?>
<svg width="160px" height="160px" viewBox="0 0 160 160" version="1.1" xmlns="http://www.w3.org/2000/svg" xmlns:xlink="http://www.w3.org/1999/xlink">
    <title>10n</title>
    <g id="10n" stroke="none" stroke-width="1" fill="none" fill-rule="evenodd">
        <g id="Group-17" transform="translate(20.000000, 7.000000)">
            <path d="M12.9122,45.4851 C15.8492,43.5241 19.1632,42.0931 22.7162,41.3141 C15.4712,39.3881 10.1082,32.7921 10.1082,24.9491 C10.1082,15.7521 17.4742,8.2411 26.6142,8.0061 C24.3132,11.8451 23.0582,16.2751 23.0582,20.8331 C23.0582,27.2271 25.5192,33.2161 29.6692,37.7291 C30.1612,34.3231 31.2162,31.0981 32.7322,28.1471 C31.6582,25.9081 31.0582,23.4211 31.0582,20.8331 C31.0582,16.0131 33.1242,11.4041 36.7262,8.1871 C37.7802,7.2461 38.2602,5.8191 37.9872,4.4331 C37.7162,3.0471 36.7312,1.9061 35.4002,1.4341 C32.7182,0.4821 29.9112,0.0001 27.0582,0.0001 C13.3022,0.0001 2.1082,11.1921 2.1082,24.9491 C2.1082,33.4571 6.3912,40.9791 12.9122,45.4851" id="Fill-1" fill="#FFF0CA"></path>
            <path d="M28.9708,122.5271 C28.5138,122.5271 28.0478,122.4481 27.5938,122.2811 C25.5198,121.5211 24.4548,119.2231 25.2158,117.1491 L29.2708,106.0891 C30.0308,104.0151 32.3288,102.9491 34.4038,103.7111 C36.4778,104.4711 37.5418,106.7691 36.7818,108.8431 L32.7268,119.9031 C32.1328,121.5231 30.6008,122.5271 28.9708,122.5271" id="Fill-3" fill="#6F89A9"></path>
            <path d="M82.3038,122.5271 C81.8468,122.5271 81.3818,122.4481 80.9278,122.2811 C78.8538,121.5211 77.7878,119.2231 78.5488,117.1491 L82.6038,106.0891 C83.3648,104.0151 85.6578,102.9471 87.7368,103.7111 C89.8108,104.4711 90.8748,106.7691 90.1148,108.8431 L86.0598,119.9031 C85.4658,121.5231 83.9348,122.5271 82.3038,122.5271" id="Fill-5" fill="#6F89A9"></path>
            <path d="M55.5001,122.5271 C55.0431,122.5271 54.5781,122.4481 54.1231,122.2811 C52.0491,121.5211 50.9841,119.2231 51.7451,117.1491 L55.8001,106.0891 C56.5601,104.0151 58.8541,102.9471 60.9321,103.7111 C63.0061,104.4711 64.0711,106.7691 63.3111,108.8431 L59.2561,119.9031 C58.6621,121.5231 57.1301,122.5271 55.5001,122.5271" id="Fill-7" fill="#6F89A9"></path>
            <path d="M20.0479,146.865 C19.5909,146.865 19.1259,146.786 18.6709,146.619 C16.5969,145.859 15.5319,143.561 16.2929,141.487 L20.3479,130.427 C21.1079,128.353 23.4019,127.284 25.4799,128.049 C27.5539,128.809 28.6189,131.107 27.8589,133.181 L23.8039,144.241 C23.2099,145.861 21.6779,146.865 20.0479,146.865" id="Fill-9" fill="#6F89A9"></path>
            <path d="M73.3809,146.865 C72.9239,146.865 72.4579,146.786 72.0039,146.619 C69.9299,145.859 68.8649,143.561 69.6259,141.487 L73.6809,130.427 C74.4419,128.353 76.7379,127.286 78.8139,128.049 C80.8879,128.809 81.9519,131.107 81.1919,133.181 L77.1369,144.241 C76.5429,145.861 75.0109,146.865 73.3809,146.865" id="Fill-11" fill="#6F89A9"></path>
            <path d="M46.5762,146.865 C46.1192,146.865 45.6542,146.786 45.2002,146.619 C43.1262,145.859 42.0602,143.561 42.8212,141.487 L46.8772,130.427 C47.6372,128.353 49.9332,127.286 52.0092,128.049 C54.0832,128.809 55.1482,131.107 54.3882,133.181 L50.3322,144.241 C49.7382,145.861 48.2072,146.865 46.5762,146.865" id="Fill-13" fill="#6F89A9"></path>
            <path d="M28.9014,48.6379 C17.3764,48.6379 8.0004,58.0139 8.0004,69.5389 C8.0004,81.0639 17.3764,90.4409 28.9014,90.4409 L91.2464,90.4409 C102.7714,90.4409 112.1474,81.0639 112.1474,69.5389 C112.1474,58.0139 102.7714,48.6379 91.2464,48.6379 C89.9664,48.6379 88.6634,48.7609 87.3704,49.0029 C86.1264,49.2369 84.8434,48.8669 83.9154,48.0059 C82.9864,47.1459 82.5194,45.8969 82.6564,44.6379 C82.7494,43.7889 82.7964,42.9489 82.7964,42.1399 C82.7964,29.6109 72.6024,19.4179 60.0734,19.4179 C47.5444,19.4179 37.3504,29.6109 37.3504,42.1399 C37.3504,42.9499 37.3974,43.7889 37.4904,44.6359 C37.6294,45.8949 37.1624,47.1449 36.2334,48.0059 C35.3034,48.8669 34.0214,49.2369 32.7774,49.0029 C31.4844,48.7609 30.1804,48.6379 28.9014,48.6379 M91.2464,98.4409 L28.9014,98.4409 C12.9644,98.4409 0.0004,85.4759 0.0004,69.5389 C0.0004,53.4419 13.2674,40.3669 29.3864,40.6419 C30.1714,24.3949 43.6354,11.4179 60.0734,11.4179 C76.5114,11.4179 89.9754,24.3949 90.7594,40.6419 C106.9144,40.3509 120.1474,53.4419 120.1474,69.5389 C120.1474,85.4759 107.1824,98.4409 91.2464,98.4409" id="Fill-15" fill="#6F89A9"></path>
        </g>
    </g>
</svg>