<?xml version="1.0" encoding="UTF-8"?>
<svg width="160px" height="160px" viewBox="0 0 160 160" version="1.1" xmlns="http://www.w3.org/2000/svg" xmlns:xlink="http://www.w3.org/1999/xlink">
    <title>13d</title>
    <defs>
        <polygon id="path-1" points="0 0 108.014 0 108.014 120.7018 0 120.7018"></polygon>
    </defs>
    <g id="13d" stroke="none" stroke-width="1" fill="none" fill-rule="evenodd">
        <g id="Group-3" transform="translate(26.000000, 20.000000)">
            <mask id="mask-2" fill="white">
                <use xlink:href="#path-1"></use>
            </mask>
            <g id="Clip-2"></g>
            <path d="M107.8877,69.1288 C107.3387,66.9878 105.1587,65.6998 103.0197,66.2478 L82.6827,71.4648 L62.2567,60.1438 L82.6827,48.8208 L103.0197,54.0378 C103.3527,54.1228 103.6877,54.1638 104.0167,54.1638 C105.7987,54.1638 107.4247,52.9638 107.8877,51.1568 C108.4367,49.0178 107.1477,46.8378 105.0077,46.2878 L92.8697,43.1738 L104.9757,36.4638 C106.9077,35.3938 107.6057,32.9588 106.5337,31.0258 C105.4627,29.0938 103.0287,28.3968 101.0967,29.4678 L88.9917,36.1778 L92.7827,24.2328 C93.4507,22.1278 92.2857,19.8788 90.1797,19.2108 C88.0767,18.5408 85.8257,19.7078 85.1577,21.8138 L78.8067,41.8228 L58.2147,53.2368 L58.2147,29.4858 L72.6367,14.2308 C74.1547,12.6248 74.0827,10.0938 72.4787,8.5748 C70.8727,7.0598 68.3417,7.1288 66.8237,8.7338 L58.2147,17.8408 L58.2147,3.9998 C58.2147,1.7908 56.4237,-0.0002 54.2147,-0.0002 C52.0057,-0.0002 50.2147,1.7908 50.2147,3.9998 L50.2147,17.8408 L41.6067,8.7338 C40.0897,7.1298 37.5587,7.0588 35.9517,8.5748 C34.3467,10.0938 34.2757,12.6248 35.7927,14.2308 L50.2147,29.4858 L50.2147,53.4678 L29.2077,41.8228 L22.8577,21.8138 C22.1887,19.7078 19.9387,18.5408 17.8347,19.2108 C15.7287,19.8788 14.5637,22.1278 15.2327,24.2328 L19.0237,36.1778 L6.9177,29.4678 C4.9857,28.3958 2.5497,29.0938 1.4797,31.0258 C0.4087,32.9588 1.1067,35.3938 3.0387,36.4638 L15.1447,43.1738 L3.0067,46.2878 C0.8667,46.8378 -0.4233,49.0178 0.1257,51.1568 C0.5897,52.9638 2.2147,54.1638 3.9977,54.1638 C4.3267,54.1638 4.6607,54.1228 4.9947,54.0378 L25.3307,48.8208 L45.7567,60.1438 L25.3307,71.4648 L4.9947,66.2478 C2.8567,65.7028 0.6757,66.9878 0.1257,69.1288 C-0.4233,71.2688 0.8667,73.4478 3.0067,73.9978 L15.1447,77.1118 L2.5247,84.1078 C0.5917,85.1778 -0.1053,87.6118 0.9647,89.5448 C1.6957,90.8618 3.0607,91.6068 4.4667,91.6068 C5.1227,91.6068 5.7877,91.4438 6.4037,91.1038 L19.0237,84.1078 L15.2327,96.0528 C14.5637,98.1578 15.7287,100.4068 17.8347,101.0748 C18.2377,101.2028 18.6447,101.2638 19.0457,101.2638 C20.7417,101.2638 22.3167,100.1758 22.8577,98.4728 L29.2077,78.4618 L50.2147,66.8178 L50.2147,90.6268 L35.7927,105.8838 C34.2757,107.4888 34.3467,110.0218 35.9517,111.5388 C36.7257,112.2698 37.7127,112.6318 38.6997,112.6318 C39.7607,112.6318 40.8207,112.2118 41.6067,111.3798 L50.2147,102.2738 L50.2147,116.7018 C50.2147,118.9108 52.0057,120.7018 54.2147,120.7018 C56.4237,120.7018 58.2147,118.9108 58.2147,116.7018 L58.2147,102.2738 L66.8237,111.3798 C67.6107,112.2118 68.6687,112.6318 69.7307,112.6318 C70.7167,112.6318 71.7047,112.2698 72.4777,111.5388 C74.0827,110.0218 74.1547,107.4888 72.6367,105.8838 L58.2147,90.6268 L58.2147,67.0488 L78.8067,78.4618 L85.1577,98.4728 C85.6987,100.1758 87.2727,101.2638 88.9687,101.2638 C89.3697,101.2638 89.7777,101.2028 90.1797,101.0748 C92.2857,100.4068 93.4507,98.1578 92.7827,96.0528 L88.9917,84.1078 L101.6117,91.1038 C102.2257,91.4438 102.8907,91.6068 103.5467,91.6068 C104.9537,91.6068 106.3187,90.8618 107.0487,89.5448 C108.1197,87.6118 107.4217,85.1778 105.4907,84.1078 L92.8697,77.1118 L105.0077,73.9978 C107.1477,73.4478 108.4367,71.2688 107.8877,69.1288" id="Fill-1" fill="#6F89A9" mask="url(#mask-2)"></path>
        </g>
    </g>
</svg>