<?xml version="1.0" encoding="UTF-8"?>
<svg width="80px" height="80px" viewBox="0 0 80 80" version="1.1" xmlns="http://www.w3.org/2000/svg" xmlns:xlink="http://www.w3.org/1999/xlink">
    <title>star</title>
    <g id="star" stroke="none" stroke-width="1" fill="none" fill-rule="evenodd">
        <g transform="translate(0.102564, 0.102564)" fill="#FFFFFF" fill-rule="nonzero" id="Shape">
            <path d="M78.5323147,28.47832 C77.6178919,27.4521588 76.3683034,26.7847356 75.0068814,26.5952389 L75.0068814,26.5923931 L53.7434524,23.6553626 L45.3289874,3.55097409 C44.1003259,0.608251942 40.7185349,-0.781334302 37.7757072,0.447213276 C36.3727662,1.03294539 35.2572774,2.14816326 34.6716584,3.55097409 L26.2571933,23.6553626 L4.99376438,26.5923931 C1.82576292,27.0333244 -0.384957338,29.9589717 0.0560148053,33.1266793 C0.245529029,34.487975 0.913014198,35.7374475 1.93927055,36.6517856 L17.9597517,50.9365179 L14.6680302,73.3520288 C14.3114355,75.6281647 15.3569446,77.8959307 17.3195552,79.1030511 C19.2545423,80.3403034 21.743507,80.2941011 23.6311155,78.9858712 L40.0001555,67.8551196 L56.3691955,78.9972543 C59.0105081,80.7897721 62.605084,80.101926 64.3979354,77.4608584 C65.2125787,76.2606014 65.5462376,74.7980288 65.3324481,73.363412 L62.0408941,50.9391963 L78.0613752,36.654464 C80.4493884,34.5268117 80.6603318,30.8661116 78.5323147,28.47832 Z M57.086403,47.71089 C56.3696977,48.3511944 56.0229804,49.3087216 56.1634419,50.2593854 L59.5921092,74.2578295 L41.6145421,62.0357982 C40.6453744,61.3772472 39.3721803,61.3772472 38.4030126,62.0357982 L20.319639,74.1835039 L23.836869,50.2480023 C23.97348,49.3011886 23.6269301,48.3488508 22.913908,47.7110574 L5.7705718,32.2605524 L28.6512335,29.1035584 C29.6530472,28.9654536 30.5070331,28.3080743 30.8969435,27.3751549 L40.0343082,5.7137803 C40.044688,5.72650268 40.0523891,5.74106647 40.0572441,5.75663466 L49.100354,27.3637717 C49.4902644,28.2966911 50.3444177,28.9540704 51.346064,29.0921753 L74.2553537,32.3891155 L57.086403,47.71089 Z"></path>
        </g>
    </g>
</svg>