<?xml version="1.0" encoding="UTF-8"?>
<svg width="160px" height="160px" viewBox="0 0 160 160" version="1.1" xmlns="http://www.w3.org/2000/svg" xmlns:xlink="http://www.w3.org/1999/xlink">
    <title>11d</title>
    <defs>
        <polygon id="path-1" points="0.2339 0.181 89.7239 0.181 89.7239 87.2043 0.2339 87.2043"></polygon>
        <polygon id="path-3" points="0 0.1803 120.1487 0.1803 120.1487 87.2043 0 87.2043"></polygon>
    </defs>
    <g id="11d" stroke="none" stroke-width="1" fill="none" fill-rule="evenodd">
        <g id="Group-9" transform="translate(2.000000, 4.000000)">
            <g id="Group-3" transform="translate(67.000000, 0.819000)">
                <mask id="mask-2" fill="white">
                    <use xlink:href="#path-1"></use>
                </mask>
                <g id="Clip-2"></g>
                <path d="M60.3359,29.4053 C59.5519,13.1583 46.0869,0.1803 29.6489,0.1803 C15.7939,0.1803 4.0519,9.4023 0.2339,22.0293 C2.8839,22.6643 5.3979,23.6433 7.7319,24.9173 C10.3669,15.2843 19.1919,8.1803 29.6489,8.1803 C42.1789,8.1803 52.3719,18.3743 52.3719,30.9033 C52.3719,31.7113 52.3249,32.5513 52.2319,33.4023 C52.0949,34.6603 52.5629,35.9093 53.4909,36.7693 C54.4209,37.6303 55.6999,38.0003 56.9459,37.7663 C58.2389,37.5243 59.5429,37.4013 60.8219,37.4013 C72.3469,37.4013 81.7239,46.7773 81.7239,58.3023 C81.7239,69.8283 72.3469,79.2043 60.8219,79.2043 L53.1459,79.2043 C53.1459,79.2373 53.1489,79.2693 53.1489,79.3023 C53.1489,82.0423 52.7569,84.6903 52.0419,87.2043 L60.8219,87.2043 C76.7589,87.2043 89.7239,74.2393 89.7239,58.3023 C89.7239,42.2043 76.4619,29.1293 60.3359,29.4053" id="Fill-1" fill="#325577" mask="url(#mask-2)"></path>
            </g>
            <g id="Group-6" transform="translate(0.000000, 21.819000)">
                <mask id="mask-4" fill="white">
                    <use xlink:href="#path-3"></use>
                </mask>
                <g id="Clip-5"></g>
                <path d="M90.7607,29.4053 C89.9767,13.1583 76.5127,0.1803 60.0737,0.1803 C43.6357,0.1803 30.1717,13.1583 29.3877,29.4053 C13.2357,29.1533 -0.0003,42.2053 -0.0003,58.3023 C-0.0003,74.2393 12.9657,87.2043 28.9017,87.2043 L35.4367,87.2043 L39.1787,79.2043 L28.9017,79.2043 C17.3757,79.2043 7.9997,69.8283 7.9997,58.3023 C7.9997,46.7773 17.3757,37.4013 28.9017,37.4013 C30.1807,37.4013 31.4857,37.5243 32.7787,37.7663 C34.0227,38.0003 35.3037,37.6303 36.2327,36.7693 C37.1607,35.9093 37.6277,34.6603 37.4907,33.4023 C37.3987,32.5513 37.3517,31.7113 37.3517,30.9033 C37.3517,18.3743 47.5447,8.1803 60.0737,8.1803 C72.6037,8.1803 82.7967,18.3743 82.7967,30.9033 C82.7967,31.7113 82.7497,32.5513 82.6567,33.4023 C82.5207,34.6603 82.9877,35.9093 83.9157,36.7693 C84.8447,37.6303 86.1237,37.9993 87.3697,37.7663 C88.6627,37.5243 89.9677,37.4013 91.2467,37.4013 C102.7727,37.4013 112.1487,46.7773 112.1487,58.3023 C112.1487,69.8283 102.7727,79.2043 91.2467,79.2043 L67.0127,79.2043 L65.5517,82.2223 L70.7217,82.2223 C72.2707,82.2223 73.6797,83.1173 74.3397,84.5173 C74.7427,85.3733 74.8177,86.3223 74.5947,87.2043 L91.2467,87.2043 C107.1827,87.2043 120.1487,74.2393 120.1487,58.3023 C120.1487,42.2043 106.8897,29.1383 90.7607,29.4053" id="Fill-4" fill="#6F89A9" mask="url(#mask-4)"></path>
            </g>
            <path d="M42.877,111.9967 L48.908,111.9967 C50.202,111.9967 51.416,112.6227 52.167,113.6777 C52.917,114.7317 53.111,116.0847 52.688,117.3077 L48.927,128.1517 L62.231,112.0417 L59.173,112.0417 C57.796,112.0417 56.516,111.3337 55.784,110.1667 C55.053,108.9997 54.973,107.5387 55.572,106.2997 L64.342,88.1757 L54.02,88.1757 L42.877,111.9967 Z M37.871,151.8187 C37.203,151.8187 36.529,151.6517 35.913,151.3067 C34.227,150.3577 33.46,148.3377 34.094,146.5087 L43.287,119.9967 L36.59,119.9967 C35.223,119.9967 33.949,119.2977 33.215,118.1437 C32.481,116.9897 32.388,115.5407 32.967,114.3027 L47.852,82.4807 C48.509,81.0737 49.922,80.1757 51.475,80.1757 L70.721,80.1757 C72.098,80.1757 73.378,80.8837 74.109,82.0507 C74.842,83.2177 74.922,84.6787 74.321,85.9177 L65.552,104.0417 L70.721,104.0417 C72.27,104.0417 73.68,104.9357 74.34,106.3367 C75,107.7377 74.791,109.3937 73.806,110.5887 L40.958,150.3657 C40.175,151.3127 39.033,151.8187 37.871,151.8187 L37.871,151.8187 Z" id="Fill-7" fill="#FFBE06"></path>
        </g>
    </g>
</svg>