<?xml version="1.0" encoding="UTF-8"?>
<svg width="200px" height="200px" viewBox="0 0 200 200" version="1.1" xmlns="http://www.w3.org/2000/svg" xmlns:xlink="http://www.w3.org/1999/xlink">
    <!-- Generator: Sketch 63.1 (92452) - https://sketch.com -->
    <title>day/h</title>
    <desc>Created with Sketch.</desc>
    <g id="day/h" stroke="none" stroke-width="1" fill="none" fill-rule="evenodd">
        <g id="Weather-icons/Hail-day" transform="translate(16.000000, 5.000000)">
            <g id="Group-2" transform="translate(14.293532, 16.814159)">
                <g id="Group" transform="translate(30.268657, 93.318584)" fill="#ADE8FF">
                    <g id="ModSleet">
                        <g id="icon">
                            <ellipse id="Oval" cx="7.14676617" cy="7.1460177" rx="7.14676617" ry="7.1460177"></ellipse>
                        </g>
                    </g>
                    <g id="ModSleet-Copy-3" transform="translate(17.656716, 24.380531)">
                        <g id="icon">
                            <ellipse id="Oval" cx="7.14676617" cy="7.1460177" rx="7.14676617" ry="7.1460177"></ellipse>
                        </g>
                    </g>
                    <g id="ModSleet-Copy" transform="translate(35.313433, 0.000000)">
                        <g id="icon">
                            <ellipse id="Oval" cx="7.14676617" cy="7.1460177" rx="7.14676617" ry="7.1460177"></ellipse>
                        </g>
                    </g>
                    <g id="ModSleet-Copy-2" transform="translate(70.626866, 0.000000)">
                        <g id="icon">
                            <ellipse id="Oval" cx="7.14676617" cy="7.1460177" rx="7.14676617" ry="7.1460177"></ellipse>
                        </g>
                    </g>
                    <g id="ModSleet-Copy-5" transform="translate(52.970149, 24.380531)">
                        <g id="icon">
                            <ellipse id="Oval" cx="7.14676617" cy="7.1460177" rx="7.14676617" ry="7.1460177"></ellipse>
                        </g>
                    </g>
                    <g id="ModSleet-Copy-6" transform="translate(35.313433, 48.761062)">
                        <g id="icon">
                            <ellipse id="Oval" cx="7.14676617" cy="7.1460177" rx="7.14676617" ry="7.1460177"></ellipse>
                        </g>
                    </g>
                </g>
                <g id="cloud-/-normal" fill="#FFFFFF">
                    <path d="M85.2523402,86.8731563 L30.5261978,86.8731563 C13.6670443,86.8731563 0,73.2075434 0,56.3501555 C0,39.4927676 13.6670443,25.8271546 30.5261978,25.8271546 C35.6137578,25.8271546 40.410631,27.0716023 44.6289631,29.2726737 C50.5026635,12.237699 66.6761336,0 85.7081709,0 C109.700043,0 129.149299,19.4472185 129.149299,43.4365782 C129.149299,43.9282432 129.141129,44.4180004 129.124918,44.9057212 C136.128408,48.6679186 140.890144,56.0618793 140.890144,64.5678865 C140.890144,76.8867469 130.902688,86.8731563 118.582538,86.8731563 L85.7081709,86.8731563 C85.639595,86.8731436 85.2523402,86.8731563 85.2523402,86.8731563 L85.7081709,86.8731563 L85.2523402,86.8731563 Z" id="Oval-4"></path>
                </g>
            </g>
        </g>
    </g>
</svg>