<?xml version="1.0" encoding="UTF-8"?>
<svg width="200px" height="200px" viewBox="0 0 200 200" version="1.1" xmlns="http://www.w3.org/2000/svg" xmlns:xlink="http://www.w3.org/1999/xlink">
    <!-- Generator: Sketch 63.1 (92452) - https://sketch.com -->
    <title>day/hr</title>
    <desc>Created with Sketch.</desc>
    <g id="day/hr" stroke="none" stroke-width="1" fill="none" fill-rule="evenodd">
        <g id="Weather-icons/ModRain" transform="translate(16.000000, 3.000000)">
            <g id="ModRain" transform="translate(14.222772, 20.085837)">
                <g id="icon">
                    <g id="cloud-/-normal" fill="#FFFFFF">
                        <path d="M84.8302989,86.4806867 L30.375078,86.4806867 C13.5993857,86.4806867 0,72.8768113 0,56.0955806 C0,39.3143498 13.5993857,25.7104744 30.375078,25.7104744 C35.4374521,25.7104744 40.2105783,26.9493001 44.4080276,29.1404276 C50.2526503,12.1824123 66.3460538,0 85.283873,0 C109.156974,0 128.509946,19.3593611 128.509946,43.2403433 C128.509946,43.7297872 128.501816,44.2173317 128.485686,44.7028492 C135.454505,48.44805 140.192668,55.8086068 140.192668,64.2761861 C140.192668,76.5393931 130.254655,86.4806867 117.995495,86.4806867 L85.283873,86.4806867 C85.2156366,86.480674 84.8302989,86.4806867 84.8302989,86.4806867 L85.283873,86.4806867 L84.8302989,86.4806867 Z" id="Oval-4"></path>
                    </g>
                    <g id="raindrop-/-high" transform="translate(33.465347, 92.060086)" fill="#ADE8FF">
                        <path d="M37.6876988,0.897499066 L37.8481804,0.934994764 C39.1871275,1.293883 39.9831618,2.66521964 39.6240617,4.00584191 L24.2477276,61.410047 C23.9038989,62.6936571 22.6197224,63.4751502 21.3353341,63.2187406 L21.1748525,63.1812449 C19.8359054,62.8223567 19.0398712,61.45102 19.3989713,60.1103978 L34.7753053,2.70619263 C35.1191341,1.42258257 36.4033105,0.641089484 37.6876988,0.897499066 Z M23.5338927,0.868998269 L23.6943787,0.906477752 C25.0333258,1.26536599 25.8258311,2.649877 25.468218,3.98494803 L14.4267023,45.2060497 C14.0817909,46.4937015 12.7967286,47.2785017 11.5122712,47.0223502 L11.3517853,46.9848707 C10.0128382,46.6259825 9.22033282,45.2414715 9.57794596,43.9064004 L20.6194616,2.68529875 C20.964373,1.39764696 22.2494353,0.612846786 23.5338927,0.868998269 Z M63.1312381,0.681512467 L63.291724,0.718991951 C64.6306711,1.07788019 65.4231765,2.4623912 65.0655634,3.79746223 L54.0240477,45.0185639 C53.6791363,46.3062157 52.394074,47.0910159 51.1096166,46.8348644 L50.9491307,46.7973849 C49.6101836,46.4384967 48.8176782,45.0539857 49.1752913,43.7189146 L60.216807,2.49781295 C60.5617184,1.21016116 61.8467807,0.425360985 63.1312381,0.681512467 Z M50.8672444,0.681497367 L51.0277263,0.718991951 C52.3666734,1.07788019 53.1614108,2.45405836 52.8034673,3.79036305 L45.6558095,30.4745916 C45.3119063,31.7584795 44.0276689,32.5401999 42.743276,32.283808 L42.582794,32.2463134 C41.2438469,31.8874252 40.4491095,30.511247 40.8070531,29.1749424 L47.9547109,2.49071377 C48.2986141,1.20682591 49.5828514,0.425105524 50.8672444,0.681497367 Z M10.7550535,0.518587156 L10.9155355,0.55608174 C12.2544826,0.91496998 13.04922,2.29114815 12.6912764,3.62745284 L5.54361862,30.3116814 C5.19971544,31.5955693 3.91547807,32.3772897 2.63108508,32.1208978 L2.47060315,32.0834032 C1.13165605,31.724515 0.33691865,30.3483368 0.69486224,29.0120321 L7.84252,2.32780356 C8.18642317,1.0439157 9.47066054,0.262195314 10.7550535,0.518587156 Z M75.2871331,0.412702795 L75.4476128,0.450205555 C76.7865599,0.809093794 77.5809421,2.18659797 77.2243833,3.51773294 L73.1061806,18.8921489 C72.7628233,20.1739989 71.4790325,20.9540518 70.1946744,20.6975298 L70.0341947,20.660027 C68.6952476,20.3011388 67.9008654,18.9236346 68.2574242,17.5924996 L72.3756269,2.21808366 C72.7189842,0.936233716 74.002775,0.156180814 75.2871331,0.412702795 Z" id="Rectangle-100"></path>
                    </g>
                </g>
            </g>
        </g>
    </g>
</svg>