<?xml version="1.0" encoding="UTF-8"?>
<svg width="200px" height="200px" viewBox="0 0 200 200" version="1.1" xmlns="http://www.w3.org/2000/svg" xmlns:xlink="http://www.w3.org/1999/xlink">
    <!-- Generator: Sketch 63.1 (92452) - https://sketch.com -->
    <title>day/lc</title>
    <desc>Created with Sketch.</desc>
    <g id="day/lc" stroke="none" stroke-width="1" fill="none" fill-rule="evenodd">
        <g id="Weather-icons/PartlyCloudyDay" transform="translate(5.000000, 12.000000)">
            <g id="PartlyCloudyDay" transform="translate(6.045455, 11.224390)">
                <g id="icon">
                    <g id="sun-/-big" transform="translate(14.681818, 0.000000)">
                        <ellipse id="Oval-1-Copy-2" stroke-opacity="0.2" stroke="#FFF308" stroke-width="2.59090909" cx="77.7272727" cy="77.7073171" rx="76.4318182" ry="76.4118625"></ellipse>
                        <ellipse id="Oval-1-Copy" stroke-opacity="0.6" stroke="#FFF308" stroke-width="3.45454545" cx="77.2954545" cy="77.2756098" rx="66.9318182" ry="66.9141907"></ellipse>
                        <ellipse id="Oval-1" fill="#FFEC65" fill-rule="evenodd" cx="77.2954545" cy="77.2756098" rx="58.2954545" ry="58.2804878"></ellipse>
                    </g>
                    <g id="cloud-/-mini" transform="translate(115.727273, 30.219512)" fill="#FFFFFF">
                        <path d="M37.626092,37.1268293 L13.4727273,37.1268293 C6.03194546,37.1268293 0,31.2865801 0,24.0822676 C0,16.8779552 6.03194546,11.037706 13.4727273,11.037706 C15.7181202,11.037706 17.8352185,11.5695435 19.696978,12.5102115 C22.2893338,5.23000406 29.4274894,0 37.8272727,0 C48.4160776,0 57,8.31112383 57,18.5634146 C57,18.7735367 56.9963943,18.9828433 56.9892396,19.1912797 C60.0802278,20.7991235 62.1818182,23.9590676 62.1818182,27.594265 C62.1818182,32.8589549 57.773858,37.1268293 52.3363636,37.1268293 L37.8272727,37.1268293 C37.8171755,37.1268293 37.80708,37.1268217 37.7969864,37.1268066 C37.7970068,37.1268238 37.7970133,37.1268293 37.7970133,37.1268293 L37.626092,37.1268293 L37.8272727,37.1268293 L37.626092,37.1268293 Z" id="Oval-4-Copy-6"></path>
                    </g>
                    <g id="cloud-/-mini" transform="translate(0.000000, 97.565854)" fill="#FFFFFF">
                        <path d="M37.626092,37.1268293 L13.4727273,37.1268293 C6.03194546,37.1268293 0,31.2865801 0,24.0822676 C0,16.8779552 6.03194546,11.037706 13.4727273,11.037706 C15.7181202,11.037706 17.8352185,11.5695435 19.696978,12.5102115 C22.2893338,5.23000406 29.4274894,0 37.8272727,0 C48.4160776,0 57,8.31112383 57,18.5634146 C57,18.7735367 56.9963943,18.9828433 56.9892396,19.1912797 C60.0802278,20.7991235 62.1818182,23.9590676 62.1818182,27.594265 C62.1818182,32.8589549 57.773858,37.1268293 52.3363636,37.1268293 L37.8272727,37.1268293 C37.8171755,37.1268293 37.80708,37.1268217 37.7969864,37.1268066 C37.7970068,37.1268238 37.7970133,37.1268293 37.7970133,37.1268293 L37.626092,37.1268293 L37.8272727,37.1268293 L37.626092,37.1268293 Z" id="Oval-4-Copy-6"></path>
                    </g>
                    <g id="cloud-/-mini" transform="translate(25.045455, 14.678049)" fill="#FFFFFF">
                        <path d="M37.626092,37.1268293 L13.4727273,37.1268293 C6.03194546,37.1268293 0,31.2865801 0,24.0822676 C0,16.8779552 6.03194546,11.037706 13.4727273,11.037706 C15.7181202,11.037706 17.8352185,11.5695435 19.696978,12.5102115 C22.2893338,5.23000406 29.4274894,0 37.8272727,0 C48.4160776,0 57,8.31112383 57,18.5634146 C57,18.7735367 56.9963943,18.9828433 56.9892396,19.1912797 C60.0802278,20.7991235 62.1818182,23.9590676 62.1818182,27.594265 C62.1818182,32.8589549 57.773858,37.1268293 52.3363636,37.1268293 L37.8272727,37.1268293 C37.8171755,37.1268293 37.80708,37.1268217 37.7969864,37.1268066 C37.7970068,37.1268238 37.7970133,37.1268293 37.7970133,37.1268293 L37.626092,37.1268293 L37.8272727,37.1268293 L37.626092,37.1268293 Z" id="Oval-4-Copy-6"></path>
                    </g>
                </g>
            </g>
        </g>
    </g>
</svg>