<?xml version="1.0" encoding="UTF-8"?>
<svg width="200px" height="200px" viewBox="0 0 200 200" version="1.1" xmlns="http://www.w3.org/2000/svg" xmlns:xlink="http://www.w3.org/1999/xlink">
    <!-- Generator: Sketch 63.1 (92452) - https://sketch.com -->
    <title>day/lr</title>
    <desc>Created with Sketch.</desc>
    <g id="day/lr" stroke="none" stroke-width="1" fill="none" fill-rule="evenodd">
        <g id="Weather-icons/OccLightRain" transform="translate(16.000000, 3.000000)">
            <g id="OccLightRain" transform="translate(14.222772, 20.085837)">
                <g id="icon">
                    <g id="cloud-/-normal" fill="#FFFFFF">
                        <path d="M84.8302989,86.4806867 L30.375078,86.4806867 C13.5993857,86.4806867 0,72.8768113 0,56.0955806 C0,39.3143498 13.5993857,25.7104744 30.375078,25.7104744 C35.4374521,25.7104744 40.2105783,26.9493001 44.4080276,29.1404276 C50.2526503,12.1824123 66.3460538,0 85.283873,0 C109.156974,0 128.509946,19.3593611 128.509946,43.2403433 C128.509946,43.7297872 128.501816,44.2173317 128.485686,44.7028492 C135.454505,48.44805 140.192668,55.8086068 140.192668,64.2761861 C140.192668,76.5393931 130.254655,86.4806867 117.995495,86.4806867 L85.283873,86.4806867 C85.2156366,86.480674 84.8302989,86.4806867 84.8302989,86.4806867 L85.283873,86.4806867 L84.8302989,86.4806867 Z" id="Oval-4"></path>
                    </g>
                    <g id="raindrop-/-low" transform="translate(44.341584, 92.060086)" fill="#ADE8FF">
                        <path d="M25.9748275,0.897499066 L26.1353091,0.934994764 C27.4742562,1.293883 28.2702905,2.66521964 27.9111904,4.00584191 L12.5348563,61.410047 C12.1910276,62.6936571 10.9068511,63.4751502 9.62246285,63.2187406 L9.46198123,63.1812449 C8.12303413,62.8223567 7.32699987,61.45102 7.68609997,60.1103978 L23.062434,2.70619263 C23.4062628,1.42258257 24.6904392,0.641089484 25.9748275,0.897499066 Z M39.1543731,0.681497367 L39.3148551,0.718991951 C40.6538022,1.07788019 41.4485396,2.45405836 41.090596,3.79036305 L33.9429382,30.4745916 C33.599035,31.7584795 32.3147977,32.5401999 31.0304047,32.283808 L30.8699227,32.2463134 C29.5309756,31.8874252 28.7362382,30.511247 29.0941818,29.1749424 L36.2418396,2.49071377 C36.5857428,1.20682591 37.8699801,0.425105524 39.1543731,0.681497367 Z M10.7550535,0.518587156 L10.9155355,0.55608174 C12.2544826,0.91496998 13.04922,2.29114815 12.6912764,3.62745284 L5.54361862,30.3116814 C5.19971544,31.5955693 3.91547807,32.3772897 2.63108508,32.1208978 L2.47060315,32.0834032 C1.13165605,31.724515 0.33691865,30.3483368 0.69486224,29.0120321 L7.84252,2.32780356 C8.18642317,1.0439157 9.47066054,0.262195314 10.7550535,0.518587156 Z M53.5346578,0.412702795 L53.6951376,0.450205555 C55.0340847,0.809093794 55.8284669,2.18659797 55.4719081,3.51773294 L51.3537053,18.8921489 C51.010348,20.1739989 49.7265573,20.9540518 48.4421992,20.6975298 L48.2817194,20.660027 C46.9427723,20.3011388 46.1483901,18.9236346 46.5049489,17.5924996 L50.6231517,2.21808366 C50.966509,0.936233716 52.2502997,0.156180814 53.5346578,0.412702795 Z" id="Rectangle-100"></path>
                    </g>
                </g>
            </g>
        </g>
    </g>
</svg>