<?xml version="1.0" encoding="UTF-8"?>
<svg width="200px" height="200px" viewBox="0 0 200 200" version="1.1" xmlns="http://www.w3.org/2000/svg" xmlns:xlink="http://www.w3.org/1999/xlink">
    <!-- Generator: Sketch 63.1 (92452) - https://sketch.com -->
    <title>day/s</title>
    <desc>Created with Sketch.</desc>
    <g id="day/s" stroke="none" stroke-width="1" fill="none" fill-rule="evenodd">
        <g id="Weather-icons/IsoRainSwrsDay" transform="translate(16.000000, 2.000000)">
            <g id="IsoRainSwrsDay" transform="translate(8.358209, 8.369099)">
                <g id="icon">
                    <g id="sun-/-normal">
                        <ellipse id="Oval-1-Copy-2" stroke-opacity="0.2" stroke="#FFF308" stroke-width="2.51072961" cx="43.880597" cy="43.9377682" rx="42.6252322" ry="42.6824034"></ellipse>
                        <ellipse id="Oval-1-Copy" stroke-opacity="0.6" stroke="#FFF308" stroke-width="3.34763948" cx="43.880597" cy="43.9377682" rx="37.1918519" ry="37.2424893"></ellipse>
                        <ellipse id="Oval-1" fill="#FFEC65" fill-rule="evenodd" cx="43.880597" cy="43.9377682" rx="33.0149254" ry="33.0579399"></ellipse>
                    </g>
                    <g id="cloud-/-normal" transform="translate(19.223881, 30.965665)" fill="#FFFFFF">
                        <path d="M84.7478885,86.4806867 L30.3455695,86.4806867 C13.5861742,86.4806867 0,72.8768113 0,56.0955806 C0,39.3143498 13.5861742,25.7104744 30.3455695,25.7104744 C35.4030255,25.7104744 40.1715148,26.9493001 44.3648864,29.1404276 C50.2038312,12.1824123 66.2816003,0 85.2010219,0 C109.050931,0 128.385102,19.3593611 128.385102,43.2403433 C128.385102,43.7297872 128.37698,44.2173317 128.360865,44.7028492 C135.322915,48.44805 140.056474,55.8086068 140.056474,64.2761861 C140.056474,76.5393931 130.128116,86.4806867 117.880866,86.4806867 L85.2010219,86.4806867 C85.1328519,86.480674 84.7478885,86.4806867 84.7478885,86.4806867 L85.2010219,86.4806867 L84.7478885,86.4806867 Z" id="Oval-4"></path>
                    </g>
                    <g id="raindrop-/-low" transform="translate(64.358209, 123.025751)" fill="#ADE8FF">
                        <path d="M25.9621385,0.900908376 L26.1014758,0.932918528 L26.2545356,0.979298366 C27.5034764,1.40200031 28.2282721,2.7196087 27.8789631,4.02494618 L12.5277914,61.3909428 C12.1815861,62.6846818 10.8964393,63.4744627 9.60057005,63.2153313 L9.44547577,63.1789185 L9.30817289,63.1369413 C8.05923214,62.7142394 7.33443642,61.396631 7.68374543,60.0912935 L23.0349171,2.7252969 C23.3811224,1.43155788 24.6662692,0.641776942 25.9621385,0.900908376 Z M39.1163357,0.681497367 L39.2766617,0.718991951 C40.614308,1.07788019 41.4082734,2.45405836 41.0506775,3.79036305 L33.9099635,30.4745916 C33.5663944,31.7584795 32.2834047,32.5401999 31.0002594,32.283808 L30.8399334,32.2463134 C29.5022871,31.8874252 28.7083217,30.511247 29.0659176,29.1749424 L36.2066316,2.49071377 C36.5502007,1.20682591 37.8331904,0.425105524 39.1163357,0.681497367 Z M10.7446053,0.518587156 L10.9049313,0.55608174 C12.2425777,0.91496998 13.036543,2.29114815 12.6789471,3.62745284 L5.53823313,30.3116814 C5.19466405,31.5955693 3.91167429,32.3772897 2.62852905,32.1208978 L2.46820303,32.0834032 C1.13055668,31.724515 0.336591343,30.3483368 0.6941872,29.0120321 L7.83490119,2.32780356 C8.17847028,1.0439157 9.46146004,0.262195314 10.7446053,0.518587156 Z M53.4826503,0.412702795 L53.6429741,0.450205555 C54.9806205,0.809093794 55.774231,2.18659797 55.4180186,3.51773294 L51.3038165,18.8921489 C50.9607928,20.1739989 49.6782492,20.9540518 48.3951388,20.6975298 L48.234815,20.660027 C46.8971686,20.3011388 46.1035582,18.9236346 46.4597706,17.5924996 L50.5739726,2.21808366 C50.9169964,0.936233716 52.1995399,0.156180814 53.4826503,0.412702795 Z" id="Rectangle-100"></path>
                    </g>
                </g>
            </g>
        </g>
    </g>
</svg>