<?xml version="1.0" encoding="UTF-8"?>
<svg width="200px" height="200px" viewBox="0 0 200 200" version="1.1" xmlns="http://www.w3.org/2000/svg" xmlns:xlink="http://www.w3.org/1999/xlink">
    <!-- Generator: Sketch 63.1 (92452) - https://sketch.com -->
    <title>day/sl</title>
    <desc>Created with Sketch.</desc>
    <g id="day/sl" stroke="none" stroke-width="1" fill="none" fill-rule="evenodd">
        <g id="Weather-icons/ModSleet" transform="translate(14.000000, 3.000000)">
            <g id="ModSleet" transform="translate(14.631841, 20.707965)">
                <g id="icon">
                    <g id="cloud-/-snow" fill="#FFFFFF">
                        <path d="M87.7828898,0.342060029 C112.355528,0.342060029 132.275587,20.4694581 132.275587,45.2978619 C132.275587,45.8068779 132.267215,46.3139179 132.250601,46.8188492 C139.423742,50.7123338 144.300641,58.3648346 144.300641,67.168252 C144.300641,79.9179729 134.071421,90.2536638 121.453039,90.2536638 L121.453039,90.2536638 L104.901623,90.2532243 C104.788745,88.2926897 103.726537,86.4249403 101.903716,85.3699235 C101.903716,85.3699235 101.407308,85.0940045 100.655148,84.5794229 C100.809674,82.3488778 99.7181083,80.1196818 97.6564682,78.9264403 C95.5507062,77.7076618 93.0134724,77.9097428 91.1510084,79.2355679 C90.4504984,78.7792087 85.1978171,75.9292035 85.1978171,75.9292035 C85.1978171,75.9292035 90.1912032,73.3717943 91.2322443,72.6806514 C93.0863105,73.955708 95.5794176,74.1341276 97.6564682,72.9319668 C99.7601661,71.714383 100.854127,69.413903 100.642774,67.1362368 C101.865975,66.4148483 101.903716,66.4884836 101.903716,66.4884836 L102.10587,66.3661973 C104.824458,64.6487543 105.726133,61.0587574 104.103413,58.2411504 C102.441896,55.356178 98.7587418,54.3603666 95.8788408,56.0272033 C95.8788408,56.0272033 95.7440699,56.1319113 94.5747945,56.7180487 C92.7247879,55.4666884 90.2516125,55.2988957 88.1888065,56.492812 C86.1014302,57.7009492 85.0081834,59.9752444 85.1978167,62.2355246 C84.1263893,62.8785156 79.5675018,65.6598442 79.5675018,65.6598442 C79.5675018,65.6598442 79.5797063,59.7357121 79.6312929,58.9229049 C81.6326839,57.9407735 83.0102878,55.8800031 83.0102878,53.4955752 C83.0102878,51.0828092 81.5963032,48.999084 79.5536702,48.0317322 C79.5834568,46.9727469 79.5675017,46.5864833 79.5675017,46.5864833 C79.5675017,43.2581874 76.8672237,40.5530973 73.5426261,40.5530973 C70.2195911,40.5530973 67.5177505,43.2528099 67.5177505,46.5864833 C67.5177505,46.5864833 67.5325901,46.7137361 67.5230622,48.0348821 C65.4843472,49.0031523 64.0749644,51.0838019 64.0749644,53.4955752 C64.0749644,55.9163092 65.4983036,58.0058255 67.5518394,58.9689655 C67.5019465,60.3789047 67.5138177,64.5689055 67.5170717,65.4826102 L67.5177505,65.6598442 C67.5177505,65.6598442 63.0236207,63.0000835 61.8915472,62.19457 C62.0655133,59.9478019 60.9731131,57.6947511 58.8964457,56.492812 C56.8264192,55.2947166 54.3394411,55.4696649 52.4863834,56.7354127 C51.4335356,56.202977 51.2390365,56.0552759 51.2106652,56.0310601 C48.3311559,54.3630553 44.6441379,55.3548214 42.9818391,58.2411504 C41.3203216,61.1261229 42.3016348,64.8216469 45.1815358,66.4884836 C45.1815358,66.4884836 45.4548922,66.4877473 46.4381162,67.1761109 C46.242244,69.4407419 47.3354486,71.7203806 49.428784,72.9319668 C51.5145476,74.1391705 54.0236265,73.9523744 55.8809987,72.660309 C56.4995753,73.1614525 62.3371123,75.9292035 62.3371123,75.9292035 C62.3371123,75.9292035 57.4204154,78.4101787 55.9266532,79.2292185 C54.0653408,77.9076899 51.533463,77.7082886 49.428784,78.9264403 C47.3601694,80.1237185 46.2678938,82.3680753 46.4329915,84.6082028 C45.41671,85.1454852 45.1815358,85.3699235 45.1815358,85.3699235 C43.3612191,86.4234912 42.2978426,88.2917934 42.1843916,90.2533499 L31.2651388,90.2536638 C13.9978795,90.2536638 -1.41932702e-14,76.1100868 -1.41932702e-14,58.6631003 C-1.41932702e-14,41.2161139 13.9978795,27.0725368 31.2651388,27.0725368 C36.4763816,27.0725368 41.3898404,28.3607717 45.7106033,30.6392596 C51.7248259,13.0080442 68.2899455,0.342060029 87.7828898,0.342060029 Z M67.5177505,86.3678088 C67.5177505,86.3678088 67.4764751,88.4034582 67.4827,90.2539909 L61.9072738,90.2537101 C61.9116883,90.0409139 61.9049036,89.8273458 61.8866765,89.6139154 C63.0237717,88.7577992 67.5177505,86.3678088 67.5177505,86.3678088 Z M79.5675018,86.3678088 C79.5675018,86.3678088 84.2408174,89.0939529 85.200682,89.5811292 C85.1802083,89.8053897 85.1723894,90.0298421 85.1769446,90.2534345 L79.5626144,90.2533149 C79.5569966,88.5823851 79.5656338,86.7380388 79.5672491,86.4167931 Z" id="Oval-4"></path>
                    </g>
                    <g id="raindrop-/-snow" transform="translate(34.427861, 97.500000)" fill="#ADE8FF">
                        <path d="M35.7786281,14.3375824 L35.9325852,14.3731594 L36.0783482,14.4180398 C37.3644465,14.8538841 38.1106652,16.2128581 37.7518727,17.5552122 L27.9569662,54.2009919 C27.6008549,55.5333146 26.2663109,56.3432581 24.9419968,56.0787178 L24.7905852,56.0431594 L24.6422768,55.9982604 C23.3561785,55.5624161 22.6099597,54.203442 22.9687522,52.861088 L32.7636587,16.2153083 C33.11977,14.8829856 34.454314,14.0730421 35.7786281,14.3375824 Z M24.2250695,0.899757015 L24.3775852,0.935159368 L24.5247687,0.980292164 C25.8106231,1.41704901 26.5539053,2.78700975 26.2007226,4.10837562 L14.8416362,46.6062371 C14.4868046,47.9337719 13.1533077,48.7397979 11.8290753,48.4749518 L11.6875852,48.4421594 L11.663666,48.4362288 L11.663666,48.4362288 L11.6845852,48.4411594 L11.6875852,48.4421594 L11.6928937,48.4440798 L11.6845852,48.4411594 L11.5293761,48.3944166 C10.2435217,47.9576598 9.50023953,46.5876991 9.85342222,45.2663332 L21.2125086,2.76847172 C21.5673402,1.44093691 22.9008371,0.634910915 24.2250695,0.899757015 Z M64.9612946,0.706464132 L65.1115852,0.741159368 L65.2609939,0.78699928 C66.5468483,1.22375612 67.2901304,2.59371686 66.9369477,3.91508274 L55.5778613,46.4129442 C55.2230298,47.740479 53.8895328,48.546505 52.5653005,48.2816589 L52.4125852,48.2451594 L52.2656012,48.2011238 C50.9797468,47.7643669 50.2364647,46.3944062 50.5896474,45.0730403 L61.9487338,2.57517883 C62.3035653,1.24764402 63.6370622,0.441618032 64.9612946,0.706464132 Z M52.343193,0.706078706 L52.4975852,0.742159368 L52.6442757,0.786959225 C53.9302989,1.22308463 54.6756842,2.5851768 54.3221751,3.90776367 L46.9689399,31.4184949 C46.6151455,32.7421492 45.2939715,33.5480822 43.9597081,33.280276 L43.8185852,33.2471594 L43.6586253,33.1993955 C42.3726022,32.7632701 41.6272169,31.4011779 41.9807259,30.078591 L49.3339611,2.56785977 C49.6877555,1.24420548 51.0089295,0.43827251 52.343193,0.706078706 Z M11.0773146,0.538122604 L11.2315852,0.574159368 L11.3783973,0.619003123 C12.6644205,1.05512853 13.4098058,2.4172207 13.0562967,3.73980757 L5.7030615,31.2505388 C5.34926715,32.5741931 4.02809316,33.3801261 2.69382969,33.1123199 L2.55258517,33.0791594 L2.39274695,33.0314394 C1.10672379,32.595314 0.361338486,31.2332218 0.714847533,29.9106349 L8.06808278,2.39990367 C8.42187713,1.07624938 9.74305112,0.270316408 11.0773146,0.538122604 Z M77.4525053,0.425485625 L77.6176007,0.464149975 C78.9950579,0.834154221 79.8122878,2.25432446 79.4454738,3.62668927 L75.2088253,19.477304 C74.8555925,20.7988572 73.534878,21.6030711 72.2135798,21.3386037 L72.0484844,21.2999394 C70.6710272,20.9299351 69.8537973,19.5097649 70.2206113,18.1374001 L74.4572598,2.28678536 C74.8104926,0.965232105 76.1312071,0.161018273 77.4525053,0.425485625 Z" id="Rectangle-100"></path>
                    </g>
                    <g id="snow-/-midi" transform="translate(45.616915, 44.004425)" fill="#FFFFFF">
                        <path d="M27.9257107,0 C29.3517594,0 30.5078002,1.16273335 30.5078002,2.58205854 L30.5078002,6.90265487 L31.3656124,6.90265487 C32.7932541,6.90265487 33.9505863,8.06447273 33.9505863,9.49115044 C33.9505863,10.9207371 32.7952055,12.079646 31.3656124,12.079646 L30.5078002,12.079646 L30.507,27.441 L43.778522,19.7605095 L43.349616,19.0157793 C42.6357951,17.776338 43.0608027,16.1906633 44.2932842,15.4773244 C45.5282785,14.7625311 47.1071297,15.1861482 47.8219263,16.4272837 L48.2508323,17.1720139 L51.9833184,15.0117157 C53.2152416,14.2986999 54.793384,14.7268502 55.5049575,15.9623894 C56.2179819,17.2004477 55.7915377,18.785459 54.565408,19.4951216 L50.8329219,21.6554197 L51.261828,22.4001499 C51.9756488,23.6395912 51.5506412,25.2252659 50.3181598,25.9386048 C49.0831654,26.6533981 47.5043142,26.229781 46.7895177,24.9886455 L46.3606116,24.2439153 L33.089,31.924 L46.3606116,39.6056422 L46.7895177,38.8609121 C47.5033385,37.6214707 49.0856784,37.1976139 50.3181598,37.9109528 C51.5531542,38.6257461 51.9766245,40.2082721 51.261828,41.4494076 L50.8329219,42.1941378 L54.565408,44.3544359 C55.7973312,45.0674517 56.216531,46.651629 55.5049575,47.8871681 C54.7919332,49.1252265 53.2094481,49.5475044 51.9833184,48.8378418 L48.2508323,46.6775436 L47.8219263,47.4222738 C47.1081054,48.6617151 45.5257656,49.0855719 44.2932842,48.3722331 C43.0582898,47.6574398 42.6348194,46.0749138 43.349616,44.8337782 L43.778522,44.0890481 L30.507,36.408 L30.5078002,51.7699115 L31.3656124,51.7699115 C32.7932541,51.7699115 33.9505863,52.9317294 33.9505863,54.3584071 C33.9505863,55.7879937 32.7952055,56.9469027 31.3656124,56.9469027 L30.5078002,56.9469027 L30.5078002,61.267499 C30.5078002,62.6935305 29.3488577,63.8495575 27.9257107,63.8495575 C26.499662,63.8495575 25.3436211,62.6868242 25.3436211,61.267499 L25.3436211,56.9469027 L24.485809,56.9469027 C23.0581673,56.9469027 21.9008351,55.7850848 21.9008351,54.3584071 C21.9008351,52.9288204 23.0562159,51.7699115 24.485809,51.7699115 L25.3436211,51.7699115 L25.343,36.408 L12.0728993,44.0890481 L12.5018054,44.8337782 C13.2156262,46.0732196 12.7906187,47.6588942 11.5581372,48.3722331 C10.3231428,49.0870264 8.74429168,48.6634093 8.02949511,47.4222738 L7.60058905,46.6775436 L3.86810297,48.8378418 C2.63617975,49.5508576 1.05803736,49.1227073 0.346463882,47.8871681 C-0.366560459,46.6491098 0.0598837021,45.0640985 1.28601341,44.3544359 L5.0184995,42.1941378 L4.58959344,41.4494076 C3.87577259,40.2099663 4.30078019,38.6242916 5.53326161,37.9109528 C6.768256,37.1961594 8.34710716,37.6197765 9.06190373,38.8609121 L9.49080979,39.6056422 L22.761,31.924 L9.49080979,24.2439153 L9.06190373,24.9886455 C8.34808289,26.2280868 6.76574303,26.6519436 5.53326161,25.9386048 C4.29826722,25.2238114 3.87479687,23.6412854 4.58959344,22.4001499 L5.0184995,21.6554197 L1.28601341,19.4951216 C0.0540901949,18.7821058 -0.365109598,17.1979285 0.346463882,15.9623894 C1.05948822,14.724331 2.64197325,14.3020531 3.86810297,15.0117157 L7.60058905,17.1720139 L8.02949511,16.4272837 C8.74331595,15.1878424 10.3256558,14.7639856 11.5581372,15.4773244 C12.7931316,16.1921178 13.216602,17.7746438 12.5018054,19.0157793 L12.0728993,19.7605095 L25.343,27.441 L25.3436211,12.079646 L24.485809,12.079646 C23.0581673,12.079646 21.9008351,10.9178282 21.9008351,9.49115044 C21.9008351,8.06156381 23.0562159,6.90265487 24.485809,6.90265487 L25.3436211,6.90265487 L25.3436211,2.58205854 C25.3436211,1.15602699 26.5025637,0 27.9257107,0 Z" id="Rectangle-100"></path>
                    </g>
                </g>
            </g>
        </g>
    </g>
</svg>