<?xml version="1.0" encoding="UTF-8"?>
<svg width="200px" height="200px" viewBox="0 0 200 200" version="1.1" xmlns="http://www.w3.org/2000/svg" xmlns:xlink="http://www.w3.org/1999/xlink">
    <!-- Generator: Sketch 63.1 (92452) - https://sketch.com -->
    <title>night/hc</title>
    <desc>Created with Sketch.</desc>
    <g id="night/hc" stroke="none" stroke-width="1" fill="none" fill-rule="evenodd" fill-opacity="0.6">
        <g id="Weather-icons/Overcast" transform="translate(0.000000, 22.000000)" fill="#000000">
            <g id="Overcast" transform="translate(17.000000, 26.000000)">
                <g id="icon">
                    <g id="cloud-/-normal-grey">
                        <path d="M101.051361,104 L36.1833333,104 C16.1998301,104 0,87.6402427 0,67.4594595 C0,47.2786762 16.1998301,30.9189189 36.1833333,30.9189189 C42.2137233,30.9189189 47.8995562,32.4087067 52.8996325,35.0437142 C59.861851,14.6503333 79.0325995,0 101.591667,0 C130.029729,0 153.083333,23.281193 153.083333,52 C153.083333,52.5885957 153.07365,53.1749073 153.054434,53.7587813 C161.355816,58.2626872 167,67.1143503 167,77.2972973 C167,92.0447928 155.161663,104 140.558333,104 L101.591667,104 C101.510382,103.999985 101.051361,104 101.051361,104 L101.591667,104 L101.051361,104 Z" id="Oval-4-Copy-2"></path>
                    </g>
                </g>
            </g>
        </g>
    </g>
</svg>