<?xml version="1.0" encoding="UTF-8"?>
<svg width="200px" height="200px" viewBox="0 0 200 200" version="1.1" xmlns="http://www.w3.org/2000/svg" xmlns:xlink="http://www.w3.org/1999/xlink">
    <!-- Generator: Sketch 63.1 (92452) - https://sketch.com -->
    <title>night/s</title>
    <desc>Created with Sketch.</desc>
    <g id="night/s" stroke="none" stroke-width="1" fill="none" fill-rule="evenodd">
        <g id="Weather-icons/IsoRainSwrsNight" transform="translate(14.000000, 2.000000)">
            <g id="IsoRainSwrsNight" transform="translate(10.907317, 3.347639)">
                <g id="icon">
                    <g id="cloud-/-normal" transform="translate(5.873171, 35.987124)" fill="#FFFFFF">
                        <path d="M85.0727061,86.4806867 L30.4618765,86.4806867 C13.6382467,86.4806867 0,72.8768113 0,56.0955806 C0,39.3143498 13.6382467,25.7104744 30.4618765,25.7104744 C35.5387165,25.7104744 40.3254823,26.9493001 44.534926,29.1404276 C50.3962501,12.1824123 66.5356413,0 85.5275764,0 C109.468896,0 128.87717,19.3593611 128.87717,43.2403433 C128.87717,43.7297872 128.869017,44.2173317 128.852841,44.7028492 C135.841574,48.44805 140.593276,55.8086068 140.593276,64.2761861 C140.593276,76.5393931 130.626865,86.4806867 118.332674,86.4806867 L85.5275764,86.4806867 C85.459145,86.480674 85.0727061,86.4806867 85.0727061,86.4806867 L85.5275764,86.4806867 L85.0727061,86.4806867 Z" id="Oval-4"></path>
                    </g>
                    <g id="Moon-/-mini" transform="translate(87.258537, 16.738197)" fill="#000000" fill-opacity="0.6">
                        <path d="M18.4676564,18.7622458 C18.4676564,36.6604223 33.0136543,51.1697611 50.957052,51.1697611 C52.9150859,51.1697611 54.8326643,50.996987 56.6953006,50.6658889 C50.8689659,58.0412414 41.8847192,62.7682403 31.8054083,62.7682403 C14.2397663,62.7682403 0,48.4116314 0,30.7018567 C0,15.3800336 10.658539,2.56807246 24.9080192,-0.60843674 C20.8624531,4.79566568 18.4676564,11.4999932 18.4676564,18.7622458 Z" id="Oval-94"></path>
                    </g>
                    <g id="star-/-mini" transform="translate(137.600000, 24.270386)" fill="#FFFFFF">
                        <path d="M3.37961537,5.02737228 C3.39314619,5.04086901 0.274491631,1.04450332 0.274491631,1.04450332 C-0.112191203,0.548939715 -0.016943178,0.464295413 0.483115432,0.852249684 C0.483115432,0.852249684 4.46683661,3.94289069 4.46683667,3.94289076 C5.36022684,4.57941837 5.71980915,4.80303693 5.95986605,4.97084805 C6.19674879,4.80519155 6.54729459,4.59082618 7.4566959,3.94289088 C7.44316507,3.95638761 11.4496279,0.845592715 11.4496279,0.845592715 C11.9464436,0.459884404 12.0313017,0.554892384 11.6423673,1.05369074 C11.6423673,1.05369074 8.54391752,5.0273721 8.54391746,5.02737216 C7.9057816,5.9185108 7.68159805,6.27718688 7.51336295,6.51663879 C7.67943799,6.75292454 7.89434497,7.10258689 8.54391733,8.00969631 C8.5303865,7.99619959 11.6490411,11.9925653 11.6490411,11.9925653 C12.0357239,12.4881289 11.9404759,12.5727732 11.4404173,12.1848189 C11.4404173,12.1848189 7.45669609,9.0941779 7.45669603,9.09417784 C6.56330586,8.45765022 6.20372355,8.23403166 5.96366665,8.06622055 C5.7267839,8.23187704 5.3762381,8.44624241 4.4668368,9.09417771 C4.48036762,9.08068099 0.473904799,12.1914759 0.473904799,12.1914759 C-0.0229108868,12.5771842 -0.107769049,12.4821762 0.281165419,11.9833779 C0.281165419,11.9833779 3.37961517,8.0096965 3.37961524,8.00969644 C4.01775109,7.1185578 4.24193464,6.75988171 4.41016975,6.52042981 C4.24409471,6.28414406 4.02918773,5.93448171 3.37961537,5.02737228 Z" id="Rectangle-71-Copy-2"></path>
                    </g>
                    <g id="star-/-normal" fill="#FFFFFF">
                        <path d="M9.86047042,13.2179507 C9.49797214,12.7022008 9.02888655,11.9389796 7.61104038,9.95899753 C7.64057463,9.98845734 0.82368349,1.25302487 0.82368349,1.25302487 C-0.0149944103,0.178195455 0.197243562,-0.00100296935 1.28874041,0.845799495 C1.28874041,0.845799495 9.98415932,7.59185853 9.98415945,7.59185868 C11.934196,8.98123158 12.7190699,9.46933227 13.2430512,9.83561994 C13.7601041,9.47403524 14.5252537,9.00613184 16.5102383,7.59185895 C16.4807041,7.62131876 25.2382073,0.821607633 25.2382073,0.821607633 C26.3157523,-0.0149566212 26.4954035,0.196746466 25.6464615,1.28549251 C25.6464615,1.28549251 18.8833581,9.95899712 18.8833579,9.95899726 C17.4904746,11.9041193 17.0011407,12.6870151 16.6339276,13.2096759 C16.9964259,13.7254257 17.4655115,14.4886469 18.8833576,16.468629 C18.8538234,16.4391692 25.6707145,25.1746017 25.6707145,25.1746017 C26.5093924,26.2494311 26.2971545,26.4286295 25.2056576,25.581827 C25.2056576,25.581827 16.5102387,18.835768 16.5102386,18.8357679 C14.5602021,17.446395 13.7753281,16.9582943 13.2513469,16.5920066 C12.7342939,16.9535913 11.9691444,17.4214947 9.98415973,18.8357676 C10.013694,18.8063078 1.25619074,25.6060189 1.25619074,25.6060189 C0.17864568,26.4425832 -0.00100550344,26.2308801 0.847936474,25.142134 C0.847936474,25.142134 7.61103996,16.4686294 7.61104011,16.4686293 C9.00392337,14.5235073 9.49325729,13.7406114 9.86047042,13.2179507 L9.86047042,13.2179507 Z" id="Rectangle-71-Copy-2"></path>
                    </g>
                    <g id="raindrop-/-low" transform="translate(51.180488, 128.047210)" fill="#ADE8FF">
                        <path d="M26.0755796,0.904676474 L26.2068079,0.934918528 L26.3418373,0.975803196 C27.6027325,1.40147156 28.3328614,2.73302026 27.9806661,4.04411827 L12.5809574,61.3717707 C12.2306947,62.6756746 10.9272027,63.4707833 9.62343193,63.2115632 L9.49080791,63.1799185 L9.35717424,63.1404365 C8.09627902,62.7147681 7.36615019,61.3832194 7.71834546,60.0721214 L23.1180541,2.74446899 C23.4683169,1.44056506 24.7718089,0.645456393 26.0755796,0.904676474 Z M39.2788478,0.68492159 L39.4208079,0.716918528 L39.5723638,0.763318345 C40.8259945,1.18638138 41.5523418,2.50855516 41.2009993,3.81647847 L34.0469473,30.4484762 C33.698342,31.7462103 32.4073914,32.5392601 31.1064869,32.2803838 L30.9508079,32.2439185 L30.8129708,32.2019871 C29.5593402,31.778924 28.8329929,30.4567502 29.1843353,29.1488269 L36.3383874,2.51682919 C36.6869927,1.21909511 37.9779432,0.426045275 39.2788478,0.68492159 Z M10.7983756,0.52201138 L10.9378079,0.553918528 L11.0918916,0.600408134 C12.3455223,1.02347117 13.0718696,2.34564495 12.7205271,3.65356826 L5.5664751,30.285566 C5.21786974,31.5833001 3.92691921,32.3763499 2.62601464,32.1174736 L2.47280791,32.0809185 L2.33249862,32.0390768 C1.07886798,31.6160138 0.352520683,30.29384 0.703863133,28.9859167 L7.85791515,2.35391898 C8.2065205,1.0561849 9.49747104,0.263135065 10.7983756,0.52201138 Z M53.6876246,0.412745494 L53.8485744,0.450205555 C55.1913476,0.809093794 55.9879998,2.18659797 55.6250297,3.53780687 L51.5058437,18.872075 C51.1586463,20.164568 49.8688477,20.9533294 48.5806369,20.6974871 L48.4196871,20.660027 C47.0769139,20.3011388 46.2802617,18.9236346 46.6432318,17.5724257 L50.7624178,2.23815759 C51.1096152,0.945664582 52.3994138,0.156903165 53.6876246,0.412745494 Z" id="Rectangle-100"></path>
                    </g>
                </g>
            </g>
        </g>
    </g>
</svg>