<?xml version="1.0" encoding="UTF-8"?>
<svg width="200px" height="200px" viewBox="0 0 200 200" version="1.1" xmlns="http://www.w3.org/2000/svg" xmlns:xlink="http://www.w3.org/1999/xlink">
    <!-- Generator: Sketch 63.1 (92452) - https://sketch.com -->
    <title>night/sl</title>
    <desc>Created with Sketch.</desc>
    <g id="night/sl" stroke="none" stroke-width="1" fill="none" fill-rule="evenodd">
        <g id="Weather-icons/ModSleetSwrsNight" transform="translate(12.000000, 3.000000)">
            <g id="ModSleetSwrsNight" transform="translate(11.224390, 1.725664)">
                <g id="icon">
                    <g id="cloud-/-snow" transform="translate(6.043902, 37.101770)" fill="#FFFFFF">
                        <path d="M88.0601119,0.342060029 C112.710352,0.342060029 132.693319,20.4694581 132.693319,45.2978619 C132.693319,45.8068779 132.68492,46.3139179 132.668254,46.8188492 C139.86407,50.7123676 144.756348,58.364854 144.756348,67.168252 C144.756348,79.9179729 134.494824,90.2536638 121.836593,90.2536638 L121.836593,90.2536638 L105.232906,90.2532243 C105.119672,88.2926897 104.05411,86.4249403 102.225533,85.3699235 C102.225533,85.3699235 101.727557,85.0940045 100.973021,84.5794229 C101.128036,82.3488778 100.033022,80.1196818 97.9648716,78.9264403 C95.8524594,77.7076618 93.307213,77.9097428 91.4388672,79.2355679 C90.736145,78.7792087 85.4668755,75.9292035 85.4668755,75.9292035 C85.4668755,75.9292035 90.4760309,73.3717943 91.5203597,72.6806514 C93.3802811,73.955708 95.8812616,74.1341276 97.9648716,72.9319668 C100.075213,71.714383 101.172629,69.413903 100.960609,67.1362368 C102.187672,66.4148483 102.225533,66.4884836 102.225533,66.4884836 L102.428325,66.3661973 C105.155498,64.6487543 106.060021,61.0587574 104.432176,58.2411504 C102.765412,55.356178 99.0706262,54.3603666 96.1816303,56.0272033 C96.1816303,56.0272033 96.0464338,56.1319113 94.8734657,56.7180487 C93.0176167,55.4666884 90.536631,55.2988957 88.4673106,56.492812 C86.3733422,57.7009492 85.2766429,59.9752444 85.4668751,62.2355246 C84.3920641,62.8785156 79.8187794,65.6598442 79.8187794,65.6598442 C79.8187794,65.6598442 79.8310224,59.7357121 79.8827719,58.9229049 C81.8904834,57.9407735 83.2724379,55.8800031 83.2724379,53.4955752 C83.2724379,51.0828092 81.8539879,48.999084 79.8049042,48.0317322 C79.8347848,46.9727469 79.8187793,46.5864833 79.8187793,46.5864833 C79.8187793,43.2581874 77.1099737,40.5530973 73.7748769,40.5530973 C70.4413476,40.5530973 67.7309745,43.2528099 67.7309745,46.5864833 C67.7309745,46.5864833 67.7458609,46.7137361 67.736303,48.0348821 C65.6911496,49.0031523 64.2773159,51.0838019 64.2773159,53.4955752 C64.2773159,55.9163092 65.70515,58.0058255 67.7651711,58.9689655 C67.7151206,60.3789047 67.7270292,64.5689055 67.7302935,65.4826102 L67.7309745,65.6598442 C67.7309745,65.6598442 63.222652,63.0000835 62.0870034,62.19457 C62.2615189,59.9478019 61.1656689,57.6947511 59.0824432,56.492812 C57.0058794,55.2947166 54.5110474,55.4696649 52.6521377,56.7354127 C51.5959649,56.202977 51.4008516,56.0552759 51.3723907,56.0310601 C48.4837878,54.3630553 44.785126,55.3548214 43.1175776,58.2411504 C41.450813,61.1261229 42.4352252,64.8216469 45.324221,66.4884836 C45.324221,66.4884836 45.5984407,66.4877473 46.5847698,67.1761109 C46.388279,69.4407419 47.484936,71.7203806 49.5848822,72.9319668 C51.6772328,74.1391705 54.1942354,73.9523744 56.0574733,72.660309 C56.6780034,73.1614525 62.5339755,75.9292035 62.5339755,75.9292035 C62.5339755,75.9292035 57.6017516,78.4101787 56.103272,79.2292185 C54.2360814,77.9076899 51.6962079,77.7082886 49.5848822,78.9264403 C47.5097349,80.1237185 46.4140098,82.3680753 46.5796289,84.6082028 C45.560138,85.1454852 45.324221,85.3699235 45.324221,85.3699235 C43.4981557,86.4234912 42.431421,88.2917934 42.3176117,90.2533499 L31.3638755,90.2536638 C14.0420854,90.2536638 -1.42156539e-14,76.1100868 -1.42156539e-14,58.6631003 C-1.42156539e-14,41.2161139 14.0420854,27.0725368 31.3638755,27.0725368 C36.5915029,27.0725368 41.5204144,28.3607359 45.8547787,30.6391646 C51.8881752,13.0080442 68.5056081,0.342060029 88.0601119,0.342060029 Z M67.7309745,86.3678088 C67.7309745,86.3678088 67.6895687,88.4034582 67.6958133,90.2539909 L62.1027796,90.2537101 C62.1072081,90.0409139 62.100402,89.8273458 62.0821172,89.6139154 C63.2228035,88.7577992 67.7309745,86.3678088 67.7309745,86.3678088 Z M79.8138766,90.2533149 C79.8085225,88.6658478 79.8160756,86.9218558 79.818233,86.4761205 L79.8187794,86.3678088 C79.8187794,86.3678088 84.5068535,89.0939529 85.4697494,89.5811292 C85.4492111,89.8053897 85.4413674,90.0298421 85.4459371,90.2534345 Z" id="Oval-4"></path>
                    </g>
                    <g id="Moon-/-mini" transform="translate(89.795122, 17.256637)" fill="#000000" fill-opacity="0.6">
                        <path d="M19.0045069,19.3433773 C19.0045069,37.7959221 33.9733535,52.7546653 52.4383616,52.7546653 C54.4534256,52.7546653 56.4268534,52.5765202 58.3437349,52.2351302 C52.3472534,59.8392222 43.1020394,64.7123894 32.7299841,64.7123894 C14.653713,64.7123894 0,49.9111067 0,31.6527992 C0,15.8564878 10.9682671,2.64775081 25.6318626,-0.627231443 C21.4690735,4.94377286 19.0045069,11.8559541 19.0045069,19.3433773 Z" id="Oval-94"></path>
                    </g>
                    <g id="star-/-mini" transform="translate(141.600000, 25.022124)" fill="#FFFFFF">
                        <path d="M3.47786,5.18308735 C3.49178416,5.19700212 0.282471039,1.07685519 0.282471039,1.07685519 C-0.115452575,0.565942272 -0.0174357122,0.478676244 0.497159486,0.878646798 C0.497159486,0.878646798 4.59668651,4.06501562 4.59668657,4.06501569 C5.51604739,4.72125876 5.88608267,4.95180356 6.13311797,5.12481237 C6.37688684,4.95402492 6.73762292,4.73301991 7.67346032,4.06501582 C7.65953615,4.07893059 11.7824659,0.87178364 11.7824659,0.87178364 C12.2937239,0.474128611 12.3810489,0.572079316 11.9808082,1.08632718 C11.9808082,1.08632718 8.79228722,5.18308716 8.79228715,5.18308722 C8.13560084,6.1018275 7.90490032,6.47161302 7.73177466,6.71848158 C7.90267747,6.96208591 8.12383174,7.32257852 8.79228702,8.25778425 C8.77836286,8.24386948 11.987676,12.3640164 11.987676,12.3640164 C12.3855996,12.8749293 12.2875827,12.9621954 11.7729875,12.5622248 C11.7729875,12.5622248 7.67346051,9.37585598 7.67346045,9.37585591 C6.75409963,8.71961284 6.38406435,8.48906804 6.13702905,8.31605924 C5.89326018,8.48684669 5.53252409,8.70785169 4.5966867,9.37585578 C4.61061087,9.36194102 0.487681101,12.569088 0.487681101,12.569088 C-0.023576901,12.966743 -0.11090187,12.8687923 0.289338833,12.3545444 C0.289338833,12.3545444 3.4778598,8.25778444 3.47785987,8.25778438 C4.13454618,7.3390441 4.3652467,6.96925858 4.53837236,6.72239002 C4.36746955,6.47878569 4.14631528,6.11829309 3.47786,5.18308735 Z" id="Rectangle-71-Copy-2"></path>
                    </g>
                    <g id="star-/-normal" fill="#FFFFFF">
                        <path d="M10.147112,13.6273562 C9.77407598,13.0956318 9.29135418,12.308771 7.83229156,10.2674621 C7.86268435,10.2978343 0.847627778,1.29183538 0.847627778,1.29183538 C-0.0154302943,0.183714784 0.202977386,-0.00103403478 1.32620379,0.871996824 C1.32620379,0.871996824 10.2743965,7.82700459 10.2743966,7.82700474 C12.2811203,9.25941132 13.0888103,9.76263018 13.6280236,10.140263 C14.1601071,9.76747881 14.9474994,9.28508283 16.9901871,7.82700502 C16.9597943,7.85737731 25.9718761,0.847055658 25.9718761,0.847055658 C27.0807451,-0.0154198794 27.2656187,0.202840383 26.3919982,1.32530865 C26.3919982,1.32530865 19.4322929,10.2674616 19.4322927,10.2674618 C17.9989187,12.2728309 17.4953599,13.0799758 17.117472,13.6188251 C17.490508,14.1505495 17.9732298,14.9374104 19.4322925,16.9787193 C19.4018997,16.948347 26.4169562,25.954346 26.4169562,25.954346 C27.2800143,27.0624666 27.0616066,27.2472154 25.9383802,26.3741845 C25.9383802,26.3741845 16.9901875,19.4191767 16.9901874,19.4191766 C14.9834637,17.98677 14.1757737,17.4835512 13.6365604,17.1059183 C13.1044769,17.4787025 12.3170846,17.9610985 10.2743969,19.4191763 C10.3047897,19.388804 1.29270791,26.3991257 1.29270791,26.3991257 C0.183838869,27.2616012 -0.00103473319,27.043341 0.87258579,25.9208727 C0.87258579,25.9208727 7.83229112,16.9787197 7.83229127,16.9787196 C9.26566533,14.9733504 9.76922407,14.1662056 10.147112,13.6273562 L10.147112,13.6273562 Z" id="Rectangle-71-Copy-2"></path>
                    </g>
                    <g id="raindrop-/-snow" transform="translate(40.580488, 134.601770)" fill="#ADE8FF">
                        <path d="M35.8772671,14.3337396 L36.0428954,14.3723607 C37.4247027,14.7423649 38.2460172,16.1569267 37.8710947,17.5552122 L28.0452555,54.2009919 C27.6880196,55.5333146 26.3607715,56.3463403 25.0351162,56.0825606 L24.8694879,56.0439395 C23.4876805,55.6739352 22.666366,54.2593735 23.0412886,52.861088 L32.8671278,16.2153083 C33.2243637,14.8829856 34.5516117,14.0699599 35.8772671,14.3337396 Z M24.2872218,0.895914144 L24.452845,0.934554497 C25.8346523,1.30455874 26.6525261,2.73195284 26.2834656,4.10837562 L14.8885067,46.6062371 C14.5325546,47.9337719 13.2063569,48.74288 11.8807836,48.4787947 L11.7151604,48.4401543 C10.333353,48.0701501 9.51547928,46.642756 9.88453975,45.2663332 L21.2794986,2.76847172 C21.6354508,1.44093691 22.9616484,0.631828766 24.2872218,0.895914144 Z M65.1520937,0.702621261 L65.3177169,0.741261613 C66.6995242,1.11126586 67.517398,2.53865995 67.1483375,3.91508274 L55.7533786,46.4129442 C55.3974265,47.740479 54.0712288,48.5495872 52.7456554,48.2855018 L52.5800323,48.2468614 C51.1982249,47.8768572 50.3803512,46.4494631 50.7494117,45.0730403 L62.1443705,2.57517883 C62.5003227,1.24764402 63.8265203,0.438535883 65.1520937,0.702621261 Z M52.4955248,0.702605692 L52.6611438,0.741261613 C54.0429511,1.11126586 54.8631284,2.53006902 54.4937269,3.90776367 L47.1172698,31.4184949 C46.7623582,32.7421492 45.4370119,33.5480822 44.1115049,33.283749 L43.9458859,33.2450931 C42.5640786,32.8750888 41.7439013,31.4562857 42.1133028,30.078591 L49.4897599,2.56785977 C49.8446716,1.24420548 51.1700179,0.43827251 52.4955248,0.702605692 Z M11.099327,0.534649591 L11.264946,0.573305511 C12.6467533,0.943309758 13.4669306,2.36211292 13.0975291,3.73980757 L5.72107202,31.2505388 C5.36616036,32.5741931 4.04081406,33.3801261 2.71530714,33.1157929 L2.54968813,33.077137 C1.1678808,32.7071327 0.347703548,31.2883296 0.717105052,29.9106349 L8.09356213,2.39990367 C8.44847378,1.07624938 9.77382009,0.270316408 11.099327,0.534649591 Z M77.6970978,0.425507617 L77.8627204,0.464149975 C79.2445277,0.834154221 80.0643384,2.25432446 79.6935937,3.63702866 L75.4491103,19.4669646 C75.0932921,20.7939997 73.7672041,21.602699 72.4416393,21.3385817 L72.2760166,21.2999394 C70.8942093,20.9299351 70.0743986,19.5097649 70.4451433,18.1270607 L74.6896268,2.29712475 C75.0454449,0.970089619 76.371533,0.161390331 77.6970978,0.425507617 Z" id="Rectangle-100"></path>
                    </g>
                    <g id="snow-/-midi" transform="translate(51.804878, 81.106195)" fill="#FFFFFF">
                        <path d="M28.0139013,0 C29.4444535,0 30.6041452,1.16273335 30.6041452,2.58205854 L30.6041452,6.90265487 L31.4646663,6.90265487 C32.8968166,6.90265487 34.0578037,8.06447273 34.0578037,9.49115044 C34.0578037,10.9207371 32.8987742,12.079646 31.4646663,12.079646 L30.6041452,12.079646 L30.604,27.44 L43.9167765,19.7605095 L43.4865159,19.0157793 C42.7704408,17.776338 43.1967906,16.1906633 44.4331643,15.4773244 C45.6720588,14.7625311 47.2558961,15.1861482 47.97295,16.4272837 L48.4032106,17.1720139 L52.147484,15.0117157 C53.3832977,14.2986999 54.9664239,14.7268502 55.6802446,15.9623894 C56.3955207,17.2004477 55.9677298,18.785459 54.7377279,19.4951216 L50.9934545,21.6554197 L51.423715,22.4001499 C52.1397901,23.6395912 51.7134404,25.2252659 50.4770667,25.9386048 C49.2381721,26.6533981 47.6543349,26.229781 46.937281,24.9886455 L46.5070204,24.2439153 L33.194,31.924 L46.5070204,39.6056422 L46.937281,38.8609121 C47.6533561,37.6214707 49.2406931,37.1976139 50.4770667,37.9109528 C51.7159613,38.6257461 52.1407689,40.2082721 51.423715,41.4494076 L50.9934545,42.1941378 L54.7377279,44.3544359 C55.9735416,45.0674517 56.3940652,46.651629 55.6802446,47.8871681 C54.9649685,49.1252265 53.3774859,49.5475044 52.147484,48.8378418 L48.4032106,46.6775436 L47.97295,47.4222738 C47.2568749,48.6617151 45.6695379,49.0855719 44.4331643,48.3722331 C43.1942697,47.6574398 42.769462,46.0749138 43.4865159,44.8337782 L43.9167765,44.0890481 L30.604,36.408 L30.6041452,51.7699115 L31.4646663,51.7699115 C32.8968166,51.7699115 34.0578037,52.9317294 34.0578037,54.3584071 C34.0578037,55.7879937 32.8987742,56.9469027 31.4646663,56.9469027 L30.6041452,56.9469027 L30.6041452,61.267499 C30.6041452,62.6935305 29.4415426,63.8495575 28.0139013,63.8495575 C26.5833491,63.8495575 25.4236574,62.6868242 25.4236574,61.267499 L25.4236574,56.9469027 L24.5631363,56.9469027 C23.130986,56.9469027 21.9699989,55.7850848 21.9699989,54.3584071 C21.9699989,52.9288204 23.1290284,51.7699115 24.5631363,51.7699115 L25.4236574,51.7699115 L25.423,36.408 L12.1110261,44.0890481 L12.5412866,44.8337782 C13.2573618,46.0732196 12.831012,47.6588942 11.5946383,48.3722331 C10.3557438,49.0870264 8.77190653,48.6634093 8.0548526,47.4222738 L7.62459204,46.6775436 L3.8803186,48.8378418 C2.64450492,49.5508576 1.06137869,49.1227073 0.34755803,47.8871681 C-0.367718073,46.6491098 0.0600728174,45.0640985 1.2900747,44.3544359 L5.03434814,42.1941378 L4.60408757,41.4494076 C3.88801245,40.2099663 4.31436224,38.6242916 5.55073589,37.9109528 C6.78963044,37.1961594 8.37346768,37.6197765 9.09052162,38.8609121 L9.52078218,39.6056422 L22.832,31.924 L9.52078218,24.2439153 L9.09052162,24.9886455 C8.37444649,26.2280868 6.78710954,26.6519436 5.55073589,25.9386048 C4.31184134,25.2238114 3.88703364,23.6412854 4.60408757,22.4001499 L5.03434814,21.6554197 L1.2900747,19.4951216 C0.0542610141,18.7821058 -0.36626263,17.1979285 0.34755803,15.9623894 C1.06283413,14.724331 2.65031672,14.3020531 3.8803186,15.0117157 L7.62459204,17.1720139 L8.0548526,16.4272837 C8.77092772,15.1878424 10.3582647,14.7639856 11.5946383,15.4773244 C12.8335329,16.1921178 13.2583406,17.7746438 12.5412866,19.0157793 L12.1110261,19.7605095 L25.423,27.44 L25.4236574,12.079646 L24.5631363,12.079646 C23.130986,12.079646 21.9699989,10.9178282 21.9699989,9.49115044 C21.9699989,8.06156381 23.1290284,6.90265487 24.5631363,6.90265487 L25.4236574,6.90265487 L25.4236574,2.58205854 C25.4236574,1.15602699 26.58626,0 28.0139013,0 Z" id="Rectangle-100"></path>
                    </g>
                </g>
            </g>
        </g>
    </g>
</svg>