<?xml version="1.0" encoding="UTF-8"?>
<svg width="200px" height="200px" viewBox="0 0 200 200" version="1.1" xmlns="http://www.w3.org/2000/svg" xmlns:xlink="http://www.w3.org/1999/xlink">
    <!-- Generator: Sketch 63.1 (92452) - https://sketch.com -->
    <title>night/sn</title>
    <desc>Created with Sketch.</desc>
    <g id="night/sn" stroke="none" stroke-width="1" fill="none" fill-rule="evenodd">
        <g id="snow-/-midi" transform="translate(12.000000, 0.000000)" fill="#FFFFFF">
            <path d="M87.8523736,0 C92.3386251,0 95.9754506,3.64210308 95.9754506,8.08794498 L95.9754506,21.6216216 L98.6740687,21.6216216 C103.165332,21.6216216 106.80622,25.2608571 106.80622,29.7297297 C106.80622,34.2077142 103.171471,37.8378378 98.6740687,37.8378378 L95.9754506,37.8378378 L95.975,85.956 L137.724233,61.8970913 L136.374924,59.5643261 C134.129292,55.6819457 135.466337,50.7150368 139.343639,48.4806005 C143.228847,46.2416082 148.195804,47.5685307 150.444505,51.456218 L151.793815,53.7889832 L163.53596,47.0221449 C167.411506,44.7887206 172.376234,46.1298428 174.614796,50 C176.857921,53.8780483 175.516357,58.8428791 171.659037,61.0658001 L159.916891,67.8326384 L161.266201,70.1654037 C163.511832,74.0477841 162.174787,79.0146929 158.297485,81.2491293 C154.412277,83.4881215 149.44532,82.161199 147.196619,78.2735118 L145.84731,75.9407465 L104.097,100 L145.84731,124.059253 L147.196619,121.726488 C149.44225,117.844108 154.420183,116.516434 158.297485,118.750871 C162.182693,120.989863 163.514902,125.946909 161.266201,129.834596 L159.916891,132.167362 L171.659037,138.9342 C175.534583,141.167624 176.853357,146.129843 174.614796,150 C172.37167,153.878048 167.39328,155.200776 163.53596,152.977855 L151.793815,146.211017 L150.444505,148.543782 C148.198874,152.426162 143.220941,153.753836 139.343639,151.5194 C135.458431,149.280407 134.126222,144.323361 136.374924,140.435674 L137.724233,138.102909 L95.975,114.043 L95.9754506,162.162162 L98.6740687,162.162162 C103.165332,162.162162 106.80622,165.801398 106.80622,170.27027 C106.80622,174.748255 103.171471,178.378378 98.6740687,178.378378 L95.9754506,178.378378 L95.9754506,191.912055 C95.9754506,196.378904 92.3294965,200 87.8523736,200 C83.3661221,200 79.7292967,196.357897 79.7292967,191.912055 L79.7292967,178.378378 L77.0306785,178.378378 C72.5394155,178.378378 68.8985275,174.739143 68.8985275,170.27027 C68.8985275,165.792286 72.5332764,162.162162 77.0306785,162.162162 L79.7292967,162.162162 L79.729,114.043 L37.9805146,138.102909 L39.3298237,140.435674 C41.5754552,144.318054 40.2384104,149.284963 36.3611083,151.5194 C32.4759005,153.758392 27.5089429,152.431469 25.2602418,148.543782 L23.9109327,146.211017 L12.1687871,152.977855 C8.29324097,155.211279 3.32851309,153.870157 1.08995165,150 C-1.15317411,146.121952 0.188390026,141.157121 4.04571014,138.9342 L15.7878558,132.167362 L14.4385467,129.834596 C12.1929152,125.952216 13.52996,120.985307 17.4072621,118.750871 C21.2924699,116.511879 26.2594276,117.838801 28.5081286,121.726488 L29.8574377,124.059253 L71.607,99.999 L29.8574377,75.9407465 L28.5081286,78.2735118 C26.2624971,82.1558922 21.2845643,83.4835656 17.4072621,81.2491293 C13.5220544,79.010137 12.1898456,74.0530909 14.4385467,70.1654037 L15.7878558,67.8326384 L4.04571014,61.0658001 C0.170164049,58.8323758 -1.1486098,53.8701572 1.08995165,50 C3.3330774,46.1219517 8.31146695,44.7992239 12.1687871,47.0221449 L23.9109327,53.7889832 L25.2602418,51.456218 C27.5058733,47.5738376 32.4838061,46.2461641 36.3611083,48.4806005 C40.2463161,50.7195927 41.5785248,55.6766388 39.3298237,59.5643261 L37.9805146,61.8970913 L79.729,85.956 L79.7292967,37.8378378 L77.0306785,37.8378378 C72.5394155,37.8378378 68.8985275,34.1986024 68.8985275,29.7297297 C68.8985275,25.2517453 72.5332764,21.6216216 77.0306785,21.6216216 L79.7292967,21.6216216 L79.7292967,8.08794498 C79.7292967,3.62109631 83.3752508,0 87.8523736,0 Z" id="Rectangle-100"></path>
        </g>
    </g>
</svg>