<?xml version="1.0" encoding="UTF-8"?>
<svg width="200px" height="200px" viewBox="0 0 200 200" version="1.1" xmlns="http://www.w3.org/2000/svg" xmlns:xlink="http://www.w3.org/1999/xlink">
    <!-- Generator: Sketch 63.1 (92452) - https://sketch.com -->
    <title>night/t</title>
    <desc>Created with Sketch.</desc>
    <g id="night/t" stroke="none" stroke-width="1" fill="none" fill-rule="evenodd">
        <g id="Weather-icons/CloudRainThunder" transform="translate(16.000000, 3.000000)">
            <g id="CloudRainThunder" transform="translate(14.138614, 20.000000)">
                <g id="icon">
                    <g id="cloud-/-light" fill="#FFFFFF">
                        <path d="M85.2689318,0 C109.13785,0 128.487431,19.488504 128.487431,43.5287919 C128.487431,44.0217188 128.479296,44.5127321 128.463154,45.0017029 C135.431131,48.7717963 140.168107,56.181217 140.168107,64.7049609 C140.168107,75.0565636 133.181673,83.7646818 123.698826,86.307058 L130.330537,73.365127 L132.819803,68.5078046 L119.898419,68.5078052 L125.503354,53.2607005 L127.18023,48.7603318 L97.4085063,48.7603318 L96.7499605,51.2334624 L87.6117054,85.5516456 L87.21,87.057 L30.3697565,87.0575838 C13.7647307,87.0575838 0.272257638,73.6354824 0.00406867969,56.9756093 L7.55285823e-14,56.4697841 C7.55285823e-14,39.5766088 13.5970031,25.8819844 30.3697565,25.8819844 C35.4318219,25.8819844 40.2046241,27.129359 44.4016859,29.3355742 C50.242957,12.2643569 66.3339071,0 85.2689318,0 Z" id="Oval-4"></path>
                    </g>
                    <g id="raindrop-/-high" transform="translate(19.960396, 92.500000)" fill="#ADE8FF">
                        <path d="M37.4785079,0.897415553 L37.6304635,0.932367594 L37.7681109,0.975173765 C39.0106155,1.39701611 39.7287255,2.72057708 39.3845128,4.00774555 L24.109337,61.1285883 C23.7648456,62.4167985 22.4749734,63.2002276 21.1952763,62.9448231 L21.0594635,62.9133676 L21.0604635,62.9133676 L21.0564635,62.9123676 L20.9056733,62.8670649 C19.6631687,62.4452225 18.9450587,61.1216616 19.2892714,59.8344931 L34.5644472,2.71365033 C34.9089386,1.42544012 36.1988108,0.642011082 37.4785079,0.897415553 Z M23.4084629,0.868996092 L23.5594635,0.904367594 L23.6980596,0.946777902 C24.9405689,1.36860289 25.6587957,2.69172736 25.3175185,3.96791834 L14.3413372,45.0128615 C13.9984667,46.2950105 12.7099209,47.07348 11.4303273,46.8176885 L11.2784635,46.7813676 L11.1407306,46.7399067 C9.89822125,46.3180817 9.17999452,44.9949572 9.52127172,43.7187662 L20.4974529,2.67382311 C20.8403234,1.39167411 22.1288693,0.613204559 23.4084629,0.868996092 Z M62.7715045,0.682311512 L62.9224635,0.717367594 L63.0611012,0.760093322 C64.3036105,1.18191831 65.0218372,2.50504278 64.68056,3.78123376 L53.7043788,44.8261769 C53.3615083,46.1083259 52.0729624,46.8867954 50.7933688,46.6310039 L50.6544635,46.5983676 L50.5037721,46.5532221 C49.2612628,46.1313971 48.5430361,44.8082726 48.8843133,43.5320817 L59.8604945,2.48713853 C60.203365,1.20498953 61.4919109,0.426519979 62.7715045,0.682311512 Z M50.5662548,0.678584985 L50.7257871,0.715919336 C52.0568115,1.07327386 52.8468463,2.44357093 52.4910207,3.77416492 L45.3856568,30.3443583 C45.0437885,31.6227595 43.7671502,32.4011392 42.4903572,32.145843 L42.3308248,32.1085087 C40.9998005,31.7511542 40.2097657,30.3808571 40.5655913,29.0502631 L47.6709552,2.48006969 C48.0128234,1.20166854 49.2894618,0.423288834 50.5662548,0.678584985 Z M10.6914142,0.516370972 L10.8509465,0.553705323 C12.1819708,0.911059852 12.9720056,2.28135692 12.6161801,3.6119509 L5.51081614,30.1821443 C5.16894789,31.4605455 3.89230956,32.2389252 2.61551653,31.983629 L2.4559842,31.9462947 C1.12495986,31.5889401 0.334925049,30.2186431 0.690750629,28.8880491 L7.79611455,2.31785568 C8.1379828,1.03945453 9.41462113,0.261074821 10.6914142,0.516370972 Z M74.8416471,0.410939108 L75.0011772,0.448281599 C76.3322016,0.805636128 77.1218833,2.17725354 76.7674343,3.50269989 L72.6735996,18.8114132 C72.332274,20.0877852 71.0560797,20.8645045 69.7793213,20.6090788 L69.6197912,20.5717363 C68.2887668,20.2143818 67.4990851,18.8427644 67.8535341,17.517318 L71.9473688,2.20860467 C72.2886944,0.932232717 73.5648887,0.155513375 74.8416471,0.410939108 Z" id="Rectangle-100"></path>
                    </g>
                    <g id="light" transform="translate(90.653465, 52.500000)" fill="#FFF467">
                        <polygon id="Path-13" points="9.14851491 0 5.66539164e-08 34.3181833 14.9702967 34.3181833 10.8118812 70 36.5940594 19.7474734 24.2376238 19.7474747 31.6039608 0"></polygon>
                    </g>
                </g>
            </g>
        </g>
        <g id="Moon-/-mini" transform="translate(25.000000, 14.000000)" fill="#000000" fill-opacity="0.6">
            <path d="M14.673913,14.9456522 C14.673913,29.2030031 26.2317796,40.7608696 40.4891304,40.7608696 C42.044859,40.7608696 43.5684458,40.623254 45.0483816,40.3595318 C40.418901,46.2346873 33.2803601,50 25.2717391,50 C11.314543,50 0,38.5637952 0,24.4565217 C0,12.2513969 8.46906171,2.04559682 19.791391,-0.484699546 C16.576595,3.82058703 14.673913,9.160922 14.673913,14.9456522 Z" id="Oval-94"></path>
        </g>
    </g>
</svg>